<svg xmlns="http://www.w3.org/2000/svg" width="20" height="20" viewBox="0 0 20 20">
  <path fill="#000000" fill-rule="evenodd" d="M5.80000019,0 L14.1999998,0 C17.3999996,0 20,2.5999999 20,5.80000019 L20,14.1999998 C20,17.4032516 17.4032516,20 14.1999998,20 L5.80000019,20 C2.5999999,20 0,17.3999996 0,14.1999998 L0,5.80000019 C-2.22044604e-16,2.59674835 2.59674835,0 5.80000019,0 Z M5.5999999,2 C3.61177492,2 2,3.61177492 2,5.5999999 L2,14.3999996 C2,16.3899993 3.61000013,18 5.5999999,18 L14.3999996,18 C16.3882255,18 18,16.3882255 18,14.3999996 L18,5.5999999 C18,3.61000013 16.3899993,2 14.3999996,2 L5.5999999,2 Z M15.25,3.5 C15.9403562,3.5 16.5,4.05964422 16.5,4.75 C16.5,5.44035577 15.9403562,6 15.25,6 C14.5596437,6 14,5.44035577 14,4.75 C14,4.05964422 14.5596437,3.5 15.25,3.5 Z M10,5 C12.761424,5 15,7.23857641 15,10 C15,12.761424 12.761424,15 10,15 C7.23857641,15 5,12.761424 5,10 C5,7.23857641 7.23857641,5 10,5 Z M10,7 C8.34314537,7 7,8.34314537 7,10 C7,11.6568546 8.34314537,13 10,13 C11.6568546,13 13,11.6568546 13,10 C13,8.34314537 11.6568546,7 10,7 Z"/>
</svg>
