<svg xmlns="http://www.w3.org/2000/svg" width="20" height="20" viewBox="0 0 20 20">
  <path fill="#000000" fill-rule="evenodd" d="M15.5971661,8.47442976 C15.771585,8.64884863 15.8692596,8.88838387 15.8692596,9.13257028 C15.8692596,9.37675669 15.771585,9.61861752 15.5971661,9.7907108 C15.4250729,9.96512966 15.1855376,10.0628042 14.9390256,10.0628042 C14.6948392,10.0628042 14.455304,9.96512966 14.2834433,9.7907108 C14.1090244,9.61861752 14.0087917,9.37908228 14.0087917,9.13257028 C14.0087917,8.88838387 14.1090244,8.64884863 14.2834433,8.47442976 C14.455304,8.30233648 14.6948392,8.20233633 14.9390256,8.20233633 C15.1855376,8.20233633 15.4250729,8.30233648 15.5971661,8.47442976 M16.7201911,7.1230324 C16.7499586,7.57163772 16.4104232,7.95931271 15.9618179,7.98884764 C15.9436783,7.99001044 15.9255387,7.99070811 15.9073992,7.99070811 C15.4822823,7.99070811 15.1243747,7.66070762 15.0960026,7.23024186 C15.0087932,5.91117012 14.1466989,5.69465817 13.9746056,5.66465813 C13.5292561,5.6037278 13.2246045,5.19419231 13.2855348,4.74884281 C13.3466977,4.30326075 13.7639076,3.99419052 14.2092571,4.05395805 C15.0148397,4.16442333 16.5767025,4.94791287 16.7201911,7.1230324 M16.9474007,9.81652479 C13.9334427,13.1974601 11.1880898,15.8342082 9.99994849,16.9444424 C8.81250485,15.8351384 6.0694775,13.2009484 3.05249626,9.81652479 C1.83482002,8.4507088 1.53179631,6.78489236 2.22133222,5.24628541 C2.8606355,3.81930653 4.23063755,2.86046789 5.63017452,2.86046789 C8.4055275,2.86046789 9.03366798,4.93628495 9.09785412,5.17954112 C9.20064497,5.58977429 9.56901761,5.88372822 9.99273917,5.88372822 L10.0008787,5.88372822 C10.4234375,5.88372822 10.7943683,5.59000685 10.9018103,5.18070392 C10.9639034,4.94372682 11.5894857,2.86302604 14.369955,2.86302604 C15.7692594,2.86302604 17.1392615,3.82046933 17.7787973,5.2474482 C18.4681007,6.78605515 18.1653095,8.4507088 16.9474007,9.81652479 M19.4762417,4.48535404 C18.5276356,2.36814158 16.523214,1 14.369955,1 C12.2180913,1 10.8222753,1.94651304 9.99994849,2.97186341 C9.17762168,1.94651304 7.78180564,1 5.63017452,1 C3.47691549,1 1.4724939,2.36814158 0.523655271,4.48535404 C-0.464253181,6.69000849 -0.0379734746,9.14559356 1.66388953,11.0546662 C5.74040724,15.6276963 9.34297076,18.8697941 9.37878477,18.9018872 C9.55552922,19.0604921 9.77785513,19.139562 9.99994849,19.139562 C10.2222744,19.139562 10.4443678,19.0604921 10.6211122,18.9018872 C10.6569262,18.8697941 14.2594897,15.6276963 18.3360074,11.0546662 C20.0378704,9.14559356 20.4643827,6.69000849 19.4762417,4.48535404"/>
</svg>
