<svg xmlns="http://www.w3.org/2000/svg" width="20" height="20" viewBox="0 0 20 20">
  <path fill="#000000" fill-rule="evenodd" d="M19.6926964,10.3749956 L13.131359,16.9539646 C12.925832,17.1600179 12.6558311,17.2631762 12.3860934,17.2631762 C12.1171451,17.2631762 11.8481969,17.1608074 11.6426699,16.9558067 C11.2310896,16.5452791 11.2303001,15.8789611 11.6408278,15.4673808 L16.4108435,10.6842072 L1.05263504,10.6842072 C0.47131734,10.6842072 0,10.2128898 0,9.63157211 C0,9.05025441 0.47131734,8.57893707 1.05263504,8.57893707 L16.4108435,8.57893707 L11.6408278,3.7960266 C11.2303001,3.3844463 11.2310896,2.71786516 11.6426699,2.30733749 C12.0542502,1.89680983 12.7208313,1.8975993 13.131359,2.30944276 L19.6926964,8.88841177 C20.1024345,9.2992026 20.1024345,9.96394163 19.6926964,10.3749956"/>
</svg>
