<svg xmlns="http://www.w3.org/2000/svg" width="20" height="20" viewBox="0 0 20 20">
  <path fill="#000000" fill-rule="evenodd" d="M20,17.7532468 C20,16.8207792 19.2441558,16.0649351 18.3116883,16.0649351 L1.68831169,16.0649351 C0.755844156,16.0649351 0,16.8207792 0,17.7532468 C0,18.6857143 0.755844156,19.4415584 1.68831169,19.4415584 L18.3116883,19.4415584 C19.2441558,19.4415584 20,18.6857143 20,17.7532468 M20,10.2205195 C20,9.28805195 19.2441558,8.53220779 18.3116883,8.53220779 L1.68831169,8.53220779 C0.755844156,8.53220779 0,9.28805195 0,10.2205195 C0,11.152987 0.755844156,11.9088312 1.68831169,11.9088312 L18.3116883,11.9088312 C19.2441558,11.9088312 20,11.152987 20,10.2205195 M18.3116883,4.37662338 L1.68831169,4.37662338 C0.755844156,4.37662338 0,3.62077922 0,2.68831169 C0,1.75584416 0.755844156,1 1.68831169,1 L18.3116883,1 C19.2441558,1 20,1.75584416 20,2.68831169 C20,3.62077922 19.2441558,4.37662338 18.3116883,4.37662338"/>
</svg>
