<svg xmlns="http://www.w3.org/2000/svg" width="20" height="20" viewBox="0 0 20 20">
  <path fill="#000000" fill-rule="evenodd" d="M19.018,3.81800007 C18.3179993,4.13600015 17.5630001,4.34500026 16.782,4.44500017 C17.5819992,3.96300005 18.1999992,3.20000028 18.4909996,2.28100013 C17.7360004,2.73600006 16.9,3.05400013 16.018,3.23600006 C15.2999996,2.45399999 14.2909998,2 13.1449999,2 C11.0090002,2 9.26300001,3.74499988 9.26300001,5.90000009 C9.26300001,6.20900011 9.29900026,6.5090003 9.36300039,6.79099988 C6.12700033,6.62699985 3.24500036,5.07299995 1.32700014,2.71799993 C0.991000168,3.29099988 0.800000188,3.96299982 0.800000188,4.67299985 C0.800000188,6.02799987 1.48200011,7.22799968 2.53600025,7.90899991 C1.89100027,7.90899991 1.29100024,7.72699975 0.763000248,7.45399999 L0.763000248,7.48099994 C0.763000248,9.37199974 2.10800028,10.9540004 3.89000034,11.3080005 C3.5630002,11.3990001 3.21700024,11.4440002 2.86300039,11.4440002 C2.6180005,11.4440002 2.37200045,11.4169998 2.13600039,11.3710002 C2.62700033,12.9070005 4.05400037,14.0530004 5.77200031,14.0799999 C4.44500017,15.1350002 2.76300025,15.7530002 0.927000038,15.7530002 C0.618000028,15.7530002 0.309000015,15.7350006 0,15.6979999 C1.727,16.8069992 3.78200006,17.4529991 5.98199987,17.4529991 C13.1460003,17.4529991 17.0820011,11.5079994 17.0820011,6.35299873 L17.0730003,5.8439989 C17.8370003,5.29899883 18.4909996,4.60799884 19.018,3.81699895 L19.018,3.81800007 Z"/>
</svg>
