<svg xmlns="http://www.w3.org/2000/svg" width="20" height="20" viewBox="0 0 20 20">
  <path fill="#000000" d="M16.55,1 C14.2628227,1.02122243 12.0150368,1.59775377 10,2.68 C7.98496318,1.59775377 5.73717728,1.02122243 3.45,1 C2.62709174,1.00241993 1.80643685,1.08616022 1,1.25 L1,17.25 C1.80643685,17.0861602 2.62709174,17.0024199 3.45,17 C5.36314971,17.0112442 7.25309355,17.4198807 9,18.2 C9.33,18.34 9.67,18.5 10,18.68 C10.33,18.5 10.67,18.34 11,18.2 C12.7469065,17.4198807 14.6368503,17.0112442 16.55,17 C17.3729083,17.0024199 18.1935631,17.0861602 19,17.25 L19,1.25 C18.1935631,1.08616022 17.3729083,1.00241993 16.55,1 Z M9,16 C7.22511146,15.3359063 5.34505717,14.9971578 3.45,15 L3,15 L3,3 L3.45,3 C5.38601642,3.0203345 7.28903995,3.50380534 9,4.41 L9,16 Z M17,15 L16.55,15 C14.6549428,14.9971578 12.7748885,15.3359063 11,16 L11,4.41 C12.7109601,3.50380534 14.6139836,3.0203345 16.55,3 L17,3 L17,15 Z M7.5,8.8 C6.55464771,8.39153778 5.52876935,8.20346008 4.5,8.25 L4.5,6.25 C5.52876935,6.20346008 6.55464771,6.39153778 7.5,6.8 L7.5,8.8 Z M4.84,6.24 C5.75523187,6.24655426 6.65981103,6.43699198 7.5,6.8 L7.5,8.8 C6.65981103,8.43699198 5.75523187,8.24655426 4.84,8.24 L4.5,8.24 L4.5,6.24 L4.84,6.24 Z M7.5,12.8 C6.55464771,12.3915378 5.52876935,12.2034601 4.5,12.25 L4.5,10.25 C5.52876935,10.2034601 6.55464771,10.3915378 7.5,10.8 L7.5,12.8 Z M4.84,10.24 C5.75523187,10.2465543 6.65981103,10.436992 7.5,10.8 L7.5,12.8 C6.65981103,12.436992 5.75523187,12.2465543 4.84,12.24 L4.5,12.24 L4.5,10.24 L4.84,10.24 Z M12.5,6.8 C13.4453523,6.39153778 14.4712307,6.20346008 15.5,6.25 L15.5,8.25 C14.4712307,8.20346008 13.4453523,8.39153778 12.5,8.8 L12.5,6.8 Z M15.16,6.24 L15.5,6.24 L15.5,8.24 L15.16,8.24 C14.2447681,8.24655426 13.340189,8.43699198 12.5,8.8 L12.5,6.8 C13.340189,6.43699198 14.2447681,6.24655426 15.16,6.24 Z M12.5,10.8 C13.4453523,10.3915378 14.4712307,10.2034601 15.5,10.25 L15.5,12.25 C14.4712307,12.2034601 13.4453523,12.3915378 12.5,12.8 L12.5,10.8 Z M15.16,10.24 L15.5,10.24 L15.5,12.24 L15.16,12.24 C14.2447681,12.2465543 13.340189,12.436992 12.5,12.8 L12.5,10.8 C13.340189,10.436992 14.2447681,10.2465543 15.16,10.24 Z"/>
</svg>
