<svg width="20" height="20" viewBox="0 0 20 20" xmlns="http://www.w3.org/2000/svg">
<path d="M13.6363 11.8182V13.6364H6.36353V11.8182H13.6363Z" fill="#000000"/>
<path d="M6.14282 7.00273L7.42919 5.71637L10.0001 8.28819L12.571 5.71637L13.8574 7.00273L10.0001 10.8591L6.14282 7.00273Z" fill="#000000"/>
<path fill-rule="evenodd" d="M10 20C15.5227 20 20 15.5227 20 10C20 4.47727 15.5227 0 10 0C4.47727 0 0 4.47727 0 10C0 15.5227 4.47727 20 10 20ZM10 18.1818C11.0745 18.1818 12.1384 17.9702 13.131 17.559C14.1237 17.1478 15.0257 16.5452 15.7854 15.7854C16.5452 15.0257 17.1478 14.1237 17.559 13.131C17.9702 12.1384 18.1818 11.0745 18.1818 10C18.1818 8.92555 17.9702 7.86162 17.559 6.86895C17.1478 5.87629 16.5452 4.97433 15.7854 4.21458C15.0257 3.45483 14.1237 2.85216 13.131 2.44099C12.1384 2.02981 11.0745 1.81818 10 1.81818C7.83005 1.81818 5.74897 2.68019 4.21458 4.21458C2.68019 5.74897 1.81818 7.83005 1.81818 10C1.81818 12.17 2.68019 14.251 4.21458 15.7854C5.74897 17.3198 7.83005 18.1818 10 18.1818V18.1818Z" fill="#000000"/>
</svg>
