<svg xmlns="http://www.w3.org/2000/svg" width="20" height="20" viewBox="0 0 20 20">
  <path fill="#000000" fill-rule="evenodd" d="M14.3709633,8.94022727 C14.538236,9.1075 14.6355087,9.34022727 14.6355087,9.5775 C14.6355087,9.81704545 14.538236,10.0497727 14.3709633,10.2170455 C14.2039178,10.3865909 13.9686905,10.4813636 13.7316451,10.4813636 C13.4943723,10.4813636 13.2616451,10.3865909 13.0920996,10.2170455 C12.9248269,10.0497727 12.8277814,9.81704545 12.8277814,9.5775 C12.8277814,9.34022727 12.9248269,9.1075 13.0920996,8.94022727 C13.2616451,8.77068182 13.4943723,8.67363636 13.7316451,8.67363636 C13.9686905,8.67363636 14.2039178,8.77068182 14.3709633,8.94022727 M16.0361905,7.20590909 C15.983236,7.60340909 15.6436905,7.8925 15.253236,7.8925 C15.2184633,7.8925 15.183236,7.89022727 15.1477814,7.88545455 C14.7148269,7.82772727 14.410736,7.43 14.4684633,6.99681818 C14.6261905,5.81318182 13.3068723,5.19454545 13.2505087,5.16886364 C12.8550542,4.98772727 12.6780087,4.52022727 12.8566451,4.12363636 C13.0352814,3.72704545 13.498236,3.54863636 13.8959633,3.72454545 C13.9964178,3.76909091 16.3514178,4.84227273 16.0361905,7.20590909 M12.5091451,12.4386364 C9.62573598,12.4386364 7.28028144,10.0540909 7.28028144,7.12318182 C7.28028144,4.1925 9.62573598,1.80795455 12.5091451,1.80795455 C15.3920996,1.80795455 17.7377814,4.1925 17.7377814,7.12318182 C17.7377814,10.0540909 15.3920996,12.4386364 12.5091451,12.4386364 M12.5091451,0 C8.62914508,0 5.47255417,3.19545455 5.47255417,7.12318182 C5.47255417,8.77363636 6.03119053,10.2934091 6.96528144,11.5025 L0.292781439,18.2690909 C-0.101536743,18.6690909 -0.0969912886,19.3129545 0.303008711,19.7072727 C0.500963257,19.9027273 0.758917802,20 1.01687235,20 C1.27937235,20 1.54187235,19.8990909 1.74096326,19.6972727 L8.42505417,12.9186364 C9.57755417,13.7531818 10.9870996,14.2465909 12.5091451,14.2465909 C16.3891451,14.2465909 19.5455087,11.0511364 19.5455087,7.12318182 C19.5455087,3.19545455 16.3891451,0 12.5091451,0"/>
</svg>
