<svg xmlns="http://www.w3.org/2000/svg" width="20" height="20" viewBox="0 0 20 20">
  <path fill="#000000" fill-rule="evenodd" d="M10.999999,15.2499995 C9.99999905,15.2499995 9.03999901,14.8199991 8.34999943,14.0999998 L7.15999937,18.0999998 L7.07999945,18.3600001 L7.03999948,18.3399996 C6.78999948,18.7499995 6.35999966,18.9999995 5.86999941,18.9999995 C5.11999941,18.9999995 4.49999952,18.3799986 4.49999952,17.6200003 L4.5199995,17.44 L4.49999952,17.4299998 L4.55999946,17.2100004 L6.86999941,10.2600006 C6.86999941,10.2600006 6.61999941,9.50000048 6.61999941,8.42000055 C6.61999941,6.27000046 7.77999973,5.62000036 8.69999981,5.62000036 C9.63000011,5.62000036 10.4799994,5.95000029 10.4799994,7.26000071 C10.4799994,8.94000101 9.35999966,9.80000067 9.35999966,11.0000004 C9.35999966,11.94 10.1199998,12.69 11.04,12.69 C13.96,12.69 14.9999999,10.4999995 14.9999999,8.44000006 C14.9999999,5.71000004 12.6400002,3.5 9.74999995,3.5 C6.8499999,3.5 4.5,5.71000004 4.5,8.44000006 C4.5,9.28000021 4.75,10.1200003 5.17999983,10.8499998 C5.28999996,11.0499996 5.3499999,11.2699999 5.3499999,11.4999995 C5.3499999,12.19 4.78999996,12.7499995 4.0999999,12.7499995 C3.65999985,12.7499995 3.25,12.4999995 3.01999998,12.1299996 C2.3499999,10.9999995 2,9.72999907 2,8.44000006 C2,4.32999993 5.48000002,1 9.74999995,1 C14.0199995,1 17.499999,4.32999993 17.499999,8.44000006 C17.499999,11.7199997 15.4599991,15.2499995 10.999999,15.2499995 Z"/>
</svg>
