<svg xmlns="http://www.w3.org/2000/svg" width="20" height="20" viewBox="0 0 20 20">
  <path fill="#000000" fill-rule="evenodd" d="M20,9.63160484 C20,10.2129225 19.5286827,10.6842399 18.947365,10.6842399 L3.58915654,10.6842399 L8.35917223,15.4671504 C8.7696999,15.8789938 8.76891042,16.5453118 8.35733012,16.9558395 C8.15180313,17.1608401 7.88285488,17.2632089 7.61390662,17.2632089 C7.3441689,17.2632089 7.07416801,17.1600507 6.86864102,16.9539973 L0.307303642,10.3750283 C-0.102434547,9.96397436 -0.102434547,9.29923533 0.307303642,8.88818134 L6.86864102,2.30921233 C7.27916868,1.89763203 7.94548666,1.89684256 8.35733012,2.30737022 C8.76891042,2.71789789 8.7696999,3.38421587 8.35917223,3.79605933 L3.58915654,8.5789698 L18.947365,8.5789698 C19.5286827,8.5789698 20,9.05028714 20,9.63160484"/>
</svg>
