<svg width="20" height="20" viewBox="0 0 20 20" xmlns="http://www.w3.org/2000/svg">
<path fill-rule="evenodd" d="M1.01 4C1.01 3.73478 1.11536 3.48043 1.30289 3.29289C1.49043 3.10536 1.74478 3 2.01 3H18C18.2652 3 18.5196 3.10536 18.7071 3.29289C18.8946 3.48043 19 3.73478 19 4V15.324C19 15.8544 18.7893 16.3631 18.4142 16.7382C18.0391 17.1133 17.5304 17.324 17 17.324H3C2.46957 17.324 1.96086 17.1133 1.58579 16.7382C1.21071 16.3631 1 15.8544 1 15.324V4.324C1 4.276 1.003 4.23 1.01 4.184V4V4ZM3 6.224V15.324H17V6.224L12.121 11.103C11.5584 11.6654 10.7955 11.9814 10 11.9814C9.20451 11.9814 8.44158 11.6654 7.879 11.103L3 6.222V6.224ZM4.572 4.968H15.428L10.708 9.688C10.6151 9.78098 10.5048 9.85474 10.3834 9.90506C10.262 9.95538 10.1319 9.98129 10.0005 9.98129C9.86908 9.98129 9.73896 9.95538 9.61756 9.90506C9.49616 9.85474 9.38587 9.78098 9.293 9.688L4.573 4.968H4.572Z" fill="#000000"/>
</svg>
