<svg xmlns="http://www.w3.org/2000/svg" width="20" height="20" viewBox="0 0 20 20">
  <path fill="#000000" fill-rule="evenodd" d="M2.22222232,0 L17.7777786,0 C19.0050773,0 20,0.994922816 20,2.22222232 L20,17.7777786 C20,19.0050773 19.0050773,20 17.7777786,20 L2.22222232,20 C0.994922816,20 0,19.0050773 0,17.7777786 L0,2.22222232 C0,0.994922816 0.994922816,0 2.22222232,0 Z M16.666666,2.22222232 L13.8888893,2.22222232 C11.7411146,2.22222232 10,3.96333694 10,6.11111116 L10,8.88888931 L7.77777767,8.88888931 L7.77777767,12.2222223 L10,12.2222223 L10,20 L13.333333,20 L13.333333,12.2222223 L16.666666,12.2222223 L16.666666,8.88888931 L13.333333,8.88888931 L13.333333,6.6666665 C13.333333,6.05301713 13.8307943,5.55555534 14.4444446,5.55555534 L16.666666,5.55555534 L16.666666,2.22222232 Z"/>
</svg>
