<svg xmlns="http://www.w3.org/2000/svg" width="20" height="20" viewBox="0 0 20 20">
  <path fill="#000000" fill-rule="evenodd" d="M18,0 C19.1045703,0 20,0.895430445 20,2 L20,18 C20,19.1045703 19.1045703,20 18,20 L2,20 C0.895430445,20 0,19.1045703 0,18 L0,2 C0,0.889999985 0.900000035,0 2,0 L18,0 Z M18,10 L16,10 L16,8 L15,8 L15,10 L13,10 L13,11 L15,11 L15,13 L16,13 L16,11 L18,11 L18,10 Z M7,9.28999996 L7,11 L9.85999965,11 C9.71000003,11.71 9,13.1400003 7,13.1400003 C5.28999996,13.1400003 3.93000006,11.71 3.93000006,10 C3.93000006,8.28999996 5.28999996,6.86000013 7,6.86000013 C8,6.86000013 8.64000034,7.28999996 9,7.63999986 L10.3599996,6.36000013 C9.5,5.5 8.35999965,5 7,5 C4.21000003,5 2,7.21000003 2,10 C2,12.7899999 4.21000003,15 7,15 C9.85999965,15 11.7899999,13 11.7899999,10.1400003 C11.7899999,9.78999996 11.7899999,9.56999969 11.71,9.28999996 L7,9.28999996 Z"/>
</svg>
