<svg xmlns="http://www.w3.org/2000/svg" width="20" height="20" viewBox="0 0 20 20">
  <path fill="#000000" d="M20,5.45454545 L18.1818182,5.45454545 L18.1818182,3.63636364 L16.3636364,3.63636364 L16.3636364,5.45454545 L14.5454545,5.45454545 L14.5454545,7.27272727 L16.3636364,7.27272727 L16.3636364,9.09090909 L18.1818182,9.09090909 L18.1818182,7.27272727 L20,7.27272727 L20,5.45454545 Z M6.36363636,5.45454545 L6.36363636,7.63636364 L10,7.63636364 C9.81818182,8.54545455 8.90909091,10.3636364 6.36363636,10.3636364 C4.18181818,10.3636364 2.45454545,8.54545455 2.45454545,6.36363636 C2.45454545,4.18181818 4.18181818,2.36363636 6.36363636,2.36363636 C7.63636364,2.36363636 8.45454545,2.90909091 8.90909091,3.36363636 L10.6363636,1.72727273 C9.54545455,0.636363636 8.09090909,0 6.36363636,0 C2.81818182,0 0,2.81818182 0,6.36363636 C0,9.90909091 2.81818182,12.7272727 6.36363636,12.7272727 C10,12.7272727 12.4545455,10.1818182 12.4545455,6.54545455 C12.4545455,6.09090909 12.4545455,5.81818182 12.3636364,5.45454545 L6.36363636,5.45454545 Z" transform="translate(0 4)"/>
</svg>
