<svg xmlns="http://www.w3.org/2000/svg" width="20" height="20" viewBox="0 0 20 20">
  <path fill="#000000" fill-rule="evenodd" d="M15.8693083,4 C14.1328689,4 12.7394874,5.17545267 11.5143692,6.20350332 C11.2587086,6.42241099 11.0077134,6.63096916 10.7657377,6.82321902 C10.5060338,6.82321902 10.2494402,6.8743393 9.99906693,6.9568217 C9.75335904,6.8743393 9.49676536,6.82321902 9.23799453,6.82321902 C8.99197562,6.63096916 8.74409057,6.42241099 8.49029609,6.20350332 C7.26268972,5.17325732 5.87304056,4 4.13131376,4 C1.85525006,4 0,5.72334909 0,7.84687897 C0,9.96601816 1.85525006,11.6943852 4.13131376,11.6943852 C5.78097786,11.6943852 7.11775317,10.6440674 8.29621796,9.65302409 C7.6415153,11.5551373 7.29721324,13.392331 7.29721324,15.0498196 C7.29721324,15.399821 7.57868873,15.6849027 7.92423488,15.6849027 C8.27320229,15.6849027 8.55281164,15.399821 8.55281164,15.0498196 C8.55281164,12.0349779 9.41745459,9.74334703 9.93437422,9.00382798 L9.93997263,9.00382798 L9.94214979,9.00382798 C10.4587584,9.74334703 11.3227793,12.032469 11.3227793,15.0498196 C11.3227793,15.399821 11.6061209,15.6849027 11.9532222,15.6849027 C12.2987684,15.6849027 12.5786887,15.399821 12.5786887,15.0498196 C12.5786887,13.3537555 12.211371,11.4086762 11.5324086,9.50687656 C12.7522394,10.5361817 14.1362901,11.6943852 15.8693083,11.6943852 C18.145683,11.6943852 20,9.96821351 20,7.84687897 C20,5.72334909 18.145683,4 15.8693083,4 L15.8693083,4 Z M7.6813262,8.51708771 C6.56568798,9.45732439 5.41645932,10.428296 4.13131376,10.428296 C2.54385419,10.428296 1.25870863,9.26915161 1.25870863,7.84687897 C1.25870863,6.42586082 2.54385419,5.26703009 4.13131376,5.26703009 C5.41645932,5.26703009 6.56568798,6.2370608 7.6813262,7.17917921 C7.96000249,7.40655466 8.2293481,7.63863442 8.50242598,7.84687897 C8.2293481,8.0592006 7.96000249,8.28971226 7.6813262,8.51708771 L7.6813262,8.51708771 Z M15.8693083,10.4317458 C14.5857178,10.4317458 13.4333789,9.46046061 12.3189848,8.51708771 C12.0406196,8.28971226 11.7759393,8.0592006 11.4997512,7.84687897 C11.7759393,7.63863442 12.0406196,7.40655466 12.3189848,7.17917921 C13.4333789,6.2370608 14.5857178,5.26703009 15.8693083,5.26703009 C17.4545907,5.26703009 18.7428465,6.42586082 18.7428465,7.84687897 C18.7428465,9.26915161 17.4545907,10.4317458 15.8693083,10.4317458 L15.8693083,10.4317458 Z"/>
</svg>
