<svg xmlns="http://www.w3.org/2000/svg" width="12" height="20" viewBox="0 0 12 20"><g fill="#4D4D4A" fill-rule="evenodd" opacity=".2"><path d="M11.74 8.469l-.212 1.253a.299.299 0 0 1-.123.191c-.018.011-.04.025-.059.031a.324.324 0 0 1-.167.01L9.95 9.653A6.735 6.735 0 0 1 5.894 6.8a6.822 6.822 0 0 1-1.025-4.876L5.083.669c.01-.08.053-.15.122-.189A.157.157 0 0 1 5.26.447a.33.33 0 0 1 .166-.012L6.65.738a6.713 6.713 0 0 1 4.06 2.856 6.81 6.81 0 0 1 1.03 4.875zM9.487 4.41a5.266 5.266 0 0 0-3.164-2.228 5.3 5.3 0 0 0 .797 3.796 5.258 5.258 0 0 0 3.168 2.23 5.317 5.317 0 0 0-.8-3.798zM11.74 11.923l-.212-1.254a.299.299 0 0 0-.123-.19c-.018-.012-.041-.026-.06-.032a.324.324 0 0 0-.166-.01l-1.229.302a6.735 6.735 0 0 0-4.056 2.852 6.822 6.822 0 0 0-1.025 4.876l.214 1.255c.01.08.053.15.121.189a.157.157 0 0 0 .056.033.33.33 0 0 0 .165.012l1.226-.303a6.713 6.713 0 0 0 4.06-2.856 6.81 6.81 0 0 0 1.03-4.874zM9.487 15.98a5.266 5.266 0 0 1-3.165 2.228 5.3 5.3 0 0 1 .798-3.796 5.258 5.258 0 0 1 3.167-2.23 5.317 5.317 0 0 1-.8 3.798z"/><path d="M10.582 11.255l.935-.86a.299.299 0 0 0 .094-.208c-.001-.021-.002-.048-.006-.066a.324.324 0 0 0-.083-.146L10.6 9.11A6.735 6.735 0 0 0 5.998 7.26 6.822 6.822 0 0 0 1.35 9.056l-.935.864a.248.248 0 0 0-.092.204.157.157 0 0 0 .002.065.33.33 0 0 0 .08.145l.921.863a6.713 6.713 0 0 0 4.607 1.849 6.81 6.81 0 0 0 4.649-1.79zm-4.631.32a5.266 5.266 0 0 1-3.593-1.44 5.3 5.3 0 0 1 3.618-1.4c1.4.01 2.66.559 3.595 1.443a5.317 5.317 0 0 1-3.62 1.397z"/></g></svg>