<svg xmlns="http://www.w3.org/2000/svg" width="234" height="72" viewBox="0 0 234 72"><g fill="#4D4D4A" fill-rule="evenodd"><path d="M37.01 57.936c-2.048 0-3.691 1.39-5.136 2.607-.302.26-.598.506-.883.734-.306 0-.61.06-.904.158a2.822 2.822 0 0 0-.898-.158 23.84 23.84 0 0 1-.882-.734c-1.448-1.219-3.087-2.607-5.142-2.607-2.684 0-4.872 2.04-4.872 4.552 0 2.508 2.188 4.553 4.872 4.553 1.946 0 3.523-1.243 4.913-2.415-.772 2.25-1.178 4.425-1.178 6.386 0 .414.332.752.74.752a.746.746 0 0 0 .74-.752c0-3.568 1.02-6.28 1.63-7.155H30.02c.61.875 1.629 3.584 1.629 7.155 0 .414.334.752.744.752a.745.745 0 0 0 .737-.752c0-2.007-.433-4.309-1.234-6.56 1.439 1.219 3.072 2.59 5.116 2.59 2.685 0 4.872-2.043 4.872-4.554 0-2.513-2.187-4.552-4.872-4.552zm-9.657 5.345c-1.316 1.113-2.672 2.262-4.188 2.262-1.872 0-3.388-1.372-3.388-3.055 0-1.681 1.516-3.053 3.388-3.053 1.516 0 2.872 1.148 4.188 2.263.328.27.646.544.968.79-.322.251-.64.524-.968.793zm9.658 2.266c-1.514 0-2.874-1.15-4.188-2.266-.328-.269-.64-.542-.966-.793.325-.246.638-.52.966-.79 1.314-1.115 2.674-2.263 4.188-2.263 1.87 0 3.389 1.372 3.389 3.053 0 1.683-1.52 3.06-3.39 3.06zM26.032 50.842a6.732 6.732 0 0 0-2.837-4.075l-1.053-.698a.264.264 0 0 0-.225-.038.295.295 0 0 0-.18.136l-.625 1.107a6.83 6.83 0 0 0-.704 4.93 6.733 6.733 0 0 0 2.836 4.074l1.054.699a.3.3 0 0 0 .156.052c.023 0 .048 0 .071-.01a.293.293 0 0 0 .18-.14l.621-1.105a6.824 6.824 0 0 0 .706-4.932zm-1.98 4.191a5.246 5.246 0 0 1-2.212-3.176 5.299 5.299 0 0 1 .55-3.841 5.235 5.235 0 0 1 2.208 3.171 5.301 5.301 0 0 1-.547 3.846zM6.788 44.304a6.741 6.741 0 0 0-2.838-4.072L2.9 39.528a.34.34 0 0 0-.157-.045.181.181 0 0 0-.07.012.252.252 0 0 0-.178.136l-.628 1.105a6.808 6.808 0 0 0-.7 4.933 6.722 6.722 0 0 0 2.832 4.068l1.058.704a.278.278 0 0 0 .153.048c.025 0 .045-.005.068-.01a.313.313 0 0 0 .182-.137l.623-1.105a6.81 6.81 0 0 0 .706-4.933zm-1.981 4.19a5.262 5.262 0 0 1-2.212-3.178 5.284 5.284 0 0 1 .546-3.84 5.258 5.258 0 0 1 2.214 3.176 5.301 5.301 0 0 1-.548 3.843z"/><path d="M42.091 5.513c-1.567-1.963-4.527-2.62-7.137-3.203-.983-.218-1.995-.449-2.759-.723a.385.385 0 0 0-.116-.027l-.297-.137-.025-.013c-.012-.002-.017-.012-.028-.012a2.373 2.373 0 0 1-.477-.284c-.009-.008-.018-.012-.024-.02-.345-.234-.611-.483-.806-.777a.437.437 0 0 0-.35-.185h-.008a.434.434 0 0 0-.35.185c-.207.3-.477.562-.836.8a2.244 2.244 0 0 1-.46.271c-.01.004-.025.015-.037.022-.012.006-.019.013-.029.02l-.256.122a.406.406 0 0 0-.13.027c-.767.282-1.783.509-2.767.724-2.63.59-5.59 1.247-7.16 3.21-1.222 1.532-1.696 3.24-1.378 4.949.367 1.994 1.771 3.935 4.152 5.776 0 .114.016.221.054.313 1.728 4.003 2.887 10.329 2.887 13.734 0 1.5-.083 2.785-.153 3.924-.166 2.76-.305 4.932.707 8.124.737 2.328 1.496 3.455 2.099 4.366.79 1.175 1.263 1.883 1.263 4.68l.003 7.088a.43.43 0 0 0 .2.369.41.41 0 0 0 .229.07c.06 0 .12-.015.179-.039.51-.24.86-.76.872-1.326v-.01c.005-.03 0-.068 0-.104V51.38c0-1.57-.158-2.73-.495-3.66 3.258-5.68 3.258-10.724 3.258-13.432v-.563c.005-2.61.007-5.851-.97-8.912a9.186 9.186 0 0 1 1.333-3.002l.012-.013c.004-.008.007-.01.007-.016.976-1.411 2.34-2.609 4.19-3.674.254-.142.493-.287.732-.432-1.518 4.336-2.34 9.738-2.34 12.61 0 1.53.082 2.823.146 3.966l.008.06c.166 2.696.29 4.647-.637 7.564-.673 2.127-1.339 3.113-1.92 3.982-.847 1.268-1.517 2.269-1.517 5.522 0 0 0 6.101.007 6.13l.029.283c.003.02.003.033.007.05.101.452.41.833.833 1.025a.464.464 0 0 0 .172.039.437.437 0 0 0 .435-.433v-7.094c0-2.791.474-3.505 1.259-4.677.608-.914 1.365-2.041 2.103-4.369 1.01-3.188.876-5.355.706-8.11a59.874 59.874 0 0 1-.15-3.938c0-3.399 1.157-9.731 2.883-13.734a.77.77 0 0 0 .057-.303c2.395-1.838 3.803-3.788 4.167-5.786.321-1.71-.156-3.417-1.377-4.95zM30.436 33.719v.568c0 2.625-.005 6.892-2.61 11.864-.06-.098-.126-.193-.194-.294-.584-.869-1.245-1.862-1.916-3.982-.923-2.917-.804-4.868-.635-7.564.07-1.163.15-2.477.15-4.026 0-3.094-.878-8.447-2.346-12.623.25.15.496.298.758.445 6.809 3.93 6.8 10.406 6.793 15.612zm11.58-23.535c-.411 2.209-2.574 4.498-6.256 6.624a15.311 15.311 0 0 0-3.265 2.478c-.813.893-1.226 1.39-1.478 1.76-.34.483-.628.98-.891 1.491l-.062.18-.06-.18a12.654 12.654 0 0 0-.893-1.491c-.247-.37-.662-.867-1.48-1.76-.888-.9-1.958-1.732-3.257-2.478-3.683-2.126-5.846-4.415-6.262-6.624-.239-1.283.124-2.54 1.076-3.731 1.243-1.553 3.932-2.151 6.305-2.68 1.869-.415 3.664-.815 4.571-1.725.913.91 2.704 1.31 4.574 1.724 2.373.53 5.065 1.128 6.305 2.68.951 1.193 1.311 2.449 1.073 3.732z"/><path d="M28.744 17.975c-.017-2.23-.026-2.855.663-3.558.1-.102.27-.22.657-.22.39 0 .557.118.661.22.689.703.676 1.329.661 3.558v3.07h1.429v-3.15c.008-2.317.014-3.373-1.086-4.49-.416-.427-.978-.647-1.665-.647-.684 0-1.246.22-1.669.65-1.094 1.114-1.09 2.174-1.073 4.493v3.145h1.422v-3.071M21.11 32.508c0-4.698-1.971-8.142-3.88-11.462-2.182-3.798-4.241-7.384-3.033-12.556l.145-.607a.512.512 0 0 0-.182-.52.494.494 0 0 0-.54-.057l-.552.281C7.712 10.314.163 18.434.163 27.943c0 7.537 3.931 10.414 8.204 12.381v10.062c0 5.452 3.29 6.266 5.253 6.266 2.662 0 5.361-2.443 5.361-7.113 0-2.043-.61-4.034-1.717-5.622 1.767-1.866 3.846-5.352 3.846-11.41zM8.3 38.565c-3.435-1.689-6.588-4.16-6.588-10.622 0-7.782 5.516-14.84 10.683-18.165-.603 4.917 1.478 8.542 3.49 12.051 1.813 3.15 3.675 6.4 3.675 10.679 0 4.334-1.146 7.86-3.314 10.213h-.007c-.34-.337-.71-.65-1.106-.929-1.215-.838-2.666-1.446-4.197-2.1l-2.565-1.087v-.012l-.07-.028zm9.205 10.974c0 3.688-1.955 5.62-3.886 5.62-2.542 0-3.776-1.565-3.776-4.773V40.85c.176.078.353.148.52.223 1.465.62 2.853 1.205 3.934 1.953 2.008 1.39 3.208 3.825 3.208 6.513z"/><path d="M9.844 32.903c0-.487.236-1.268.872-1.268.638 0 .871.78.871 1.268v7.94l1.478.62v-8.56c0-1.335-.825-2.752-2.349-2.752-1.52 0-2.343 1.417-2.343 2.752v6.58l1.471.624v-7.204m24.957 22.871l.63 1.106c.039.07.102.12.178.138.022.011.044.011.068.011.052 0 .106-.02.159-.052l1.054-.7a6.728 6.728 0 0 0 2.833-4.072 6.81 6.81 0 0 0-.7-4.931l-.632-1.107a.274.274 0 0 0-.18-.136.265.265 0 0 0-.22.039l-1.056.697a6.754 6.754 0 0 0-2.837 4.075 6.812 6.812 0 0 0 .703 4.932zm.732-4.587a5.218 5.218 0 0 1 2.21-3.171 5.303 5.303 0 0 1 .55 3.84 5.243 5.243 0 0 1-2.213 3.177 5.292 5.292 0 0 1-.547-3.846zm18.512-1.95l.628 1.105c.04.069.108.118.181.137.021.005.047.01.067.01a.324.324 0 0 0 .16-.048l1.051-.704a6.735 6.735 0 0 0 2.836-4.068 6.822 6.822 0 0 0-.704-4.933l-.63-1.105a.248.248 0 0 0-.18-.136.157.157 0 0 0-.062-.012.33.33 0 0 0-.16.045l-1.048.704a6.713 6.713 0 0 0-2.838 4.072 6.81 6.81 0 0 0 .699 4.933zm.73-4.585a5.266 5.266 0 0 1 2.212-3.176 5.3 5.3 0 0 1 .55 3.84 5.258 5.258 0 0 1-2.215 3.179 5.317 5.317 0 0 1-.547-3.843z"/><path d="M42.867 43.917c-1.104 1.588-1.715 3.579-1.715 5.622 0 4.67 2.697 7.113 5.365 7.113 1.958 0 5.247-.814 5.247-6.266V40.324c4.274-1.967 8.207-4.844 8.207-12.381 0-9.509-7.548-17.63-12.903-20.356l-.557-.281a.5.5 0 0 0-.547.057.524.524 0 0 0-.172.52l.139.607c1.208 5.172-.852 8.758-3.028 12.556-1.915 3.32-3.88 6.764-3.88 11.462 0 6.057 2.078 9.543 3.844 11.409zm8.897-5.324v.012l-2.566 1.087c-1.536.654-2.99 1.262-4.198 2.1a9.077 9.077 0 0 0-1.112.929h-.003c-2.168-2.354-3.317-5.879-3.317-10.213 0-4.28 1.868-7.53 3.677-10.679 2.009-3.509 4.096-7.134 3.492-12.051 5.165 3.326 10.685 10.383 10.685 18.165 0 6.461-3.157 8.933-6.589 10.622l-.07.028zm-5.93 4.433c1.082-.748 2.465-1.334 3.934-1.953.168-.075.343-.145.52-.223v9.536c0 3.208-1.237 4.774-3.771 4.774-1.933 0-3.888-1.933-3.888-5.621 0-2.688 1.197-5.122 3.206-6.513z"/><path d="M50.287 32.903c0-.487-.236-1.268-.873-1.268-.638 0-.87.78-.87 1.268v7.94l-1.471.62v-8.56c0-1.335.819-2.752 2.34-2.752 1.527 0 2.348 1.417 2.348 2.752v6.58l-1.474.624v-7.204M74.248 15.164v7.13c0 .211-.177.39-.377.39-.207 0-.37-.179-.37-.39v-7.13h-2.755a.372.372 0 0 1-.375-.38.37.37 0 0 1 .375-.376h6.241a.38.38 0 0 1 .387.376c0 .214-.177.38-.387.38h-2.74m9.054 6.692v-2.625c0-1.124-.584-1.94-1.846-1.94-.899 0-1.775.627-1.775 1.69v2.875c0 .425-.16.804-.594.828-.313 0-.444-.201-.456-.381 0-.187.097-.284.222-.342 0 0 .083-.034.083-.155v-6.902c0-.12-.083-.154-.083-.154a.381.381 0 0 1-.222-.342c0-.225.19-.379.399-.379.432 0 .651.38.651.826v2.65c.07-.14.61-.971 1.775-.971 1.79 0 2.593 1.03 2.593 2.791v2.481c0 .121.082.155.082.155.136.058.222.2.222.342 0 .226-.189.381-.4.381-.427 0-.65-.381-.65-.828m3.067-1.87c.153 1.041.992 1.999 2.09 1.999.816 0 1.401-.248 1.784-.637a.399.399 0 0 1 .292-.119c.19 0 .374.152.374.353a.376.376 0 0 1-.105.274c-.524.566-1.282.886-2.345.886-1.681 0-2.847-1.466-2.847-3.145 0-1.609 1.166-3.121 2.847-3.121 1.693 0 2.872 1.5 2.872 3.12a.4.4 0 0 1-.397.39H86.37zm4.203-.755c-.14-1.052-1.016-1.998-2.113-1.998-1.074 0-1.974.946-2.09 1.998h4.203zm20.151 27.554V28.569c0-.485.423-.916.907-.916.506 0 .903.43.903.916v18.216c0 .487-.397.918-.903.918-.484 0-.907-.43-.907-.918m7.984.918c-.509 0-.963-.374-.963-.918 0-.345.201-.688.54-.83 0 0 .2-.086.2-.37V29.771c0-.284-.2-.37-.2-.37a.907.907 0 0 1-.54-.832c0-.542.454-.916.963-.916h6.785c5.344 0 8.68 4.813 8.68 10.025 0 5.213-3.336 9.966-8.68 10.025h-6.785zm1.442-18.216c.142.142.142.372.142.542v15.295c0 .173 0 .402-.142.545h5.343c4.297 0 6.87-3.894 6.87-8.19 0-4.269-2.545-8.077-6.87-8.192h-5.343zm43.176 18.216c-.508 0-.96-.374-.96-.918 0-.345.196-.688.537-.83 0 0 .195-.086.195-.37V29.771c0-.284-.195-.37-.195-.37a.902.902 0 0 1-.538-.832c0-.542.453-.916.96-.916h6.785c5.344 0 8.679 4.813 8.679 10.025 0 5.213-3.335 9.966-8.679 10.025h-6.784zm1.44-18.216c.143.142.143.372.143.542v15.295c0 .173 0 .402-.143.545h5.344c4.297 0 6.871-3.894 6.871-8.19 0-4.269-2.544-8.077-6.87-8.192h-5.345zm61.39 0v17.27c0 .515-.426.946-.902.946-.512 0-.904-.43-.904-.946v-17.27h-6.675a.9.9 0 0 1-.906-.918.9.9 0 0 1 .906-.916H232.8c.507 0 .933.402.933.916a.924.924 0 0 1-.933.918h-6.645M152.114 45.26c-.386-.227-.919-.08-1.128.287l-.056.095a.466.466 0 0 1-.447.227h-9.9c.14-.143.14-.372.14-.545v-6.471h8.793a.9.9 0 0 0 .906-.917.92.92 0 0 0-.906-.918h-8.792v-6.989c0-.17 0-.4-.14-.542h9.361a.47.47 0 0 1 .45.224l.056.097c.209.367.739.512 1.129.288.55-.325.647-1 .33-1.561-.33-.585-1.05-.885-1.722-.882h-11.046c-.51 0-.962.374-.962.916 0 .345.198.688.535.832 0 0 .201.086.201.37v15.814c0 .284-.2.37-.2.37a.901.901 0 0 0-.536.83c0 .544.453.918.962.918h11.585c.672 0 1.387-.296 1.719-.885.319-.559.222-1.233-.332-1.558m-67.9-7.953c1.245-.803 2.146-2.379 2.146-4.069 0-3.092-2.486-5.585-5.539-5.585h-7.095c-.51 0-.962.374-.962.916 0 .345.197.688.538.832 0 0 .198.086.198.37v15.582c0 .232-.115.43-.337.516a.899.899 0 0 0-.625.86c0 .515.423.974.931.974h8.399c2.967 0 5.453-2.436 5.453-5.529 0-2.033-1.299-4.009-3.106-4.867zm-2.346 8.562h-6.755c.14-.086.194-.372.194-.633V30.03c0-.17 0-.4-.14-.542h5.654a3.727 3.727 0 0 1 3.731 3.751c0 2.148-1.272 3.35-3.28 3.35h-3.787a.916.916 0 0 0-.92.932c0 .495.404.933.92.933h4.383c2.033 0 3.677 1.517 3.677 3.721a3.67 3.67 0 0 1-3.677 3.695zM209.29 27.653h-7.55c-.509 0-.962.374-.962.916 0 .345.2.688.537.832 0 0 .2.086.2.37v15.814c0 .284-.2.37-.2.37a.904.904 0 0 0-.537.83c0 .544.453.918.961.918 1.046 0 1.586-.918 1.586-2.005V30.029c0-.17 0-.4-.143-.542h6.108c2.09 0 3.758 1.719 3.758 3.836 0 2.09-1.698 3.78-3.758 3.78h-3.796a.901.901 0 0 0-.903.918c0 .487.4.916.903.916h3.907c2.996 0 5.486-2.604 5.486-5.614 0-3.12-2.515-5.67-5.597-5.67"/><path d="M114.443 52.09c-.31-.333-.87-.35-1.178-.054l-.082.076a.48.48 0 0 1-.503.087c-1.999-.532-3.603-1.795-4.878-3.626l-6.7-9.766c2.458-.558 4.345-2.866 4.345-5.484 0-3.12-2.52-5.67-5.6-5.67h-7.546c-.512 0-.962.374-.962.916 0 .345.194.688.536.832 0 0 .197.086.197.37v15.814c0 .284-.197.37-.197.37a.895.895 0 0 0-.536.83c0 .544.45.918.962.918 1.046 0 1.582-.918 1.582-2.005V30.029c0-.17 0-.4-.143-.542h6.108c2.093 0 3.762 1.719 3.762 3.836 0 2.09-1.699 3.78-3.762 3.78h-3.793a.9.9 0 0 0-.904.918c0 .487.396.916.904.916h2.94l7.445 10.91a10.089 10.089 0 0 0 5.948 4.169c.655.2 1.44.123 1.933-.348.474-.45.569-1.097.122-1.579m82.29-6.829c-.387-.227-.918-.08-1.128.287l-.054.095a.472.472 0 0 1-.45.227h-9.897c.139-.143.139-.372.139-.545v-6.471h8.792c.509 0 .905-.4.905-.917a.919.919 0 0 0-.905-.918h-8.792v-6.989c0-.17 0-.4-.14-.542h9.362a.466.466 0 0 1 .446.224l.06.097c.206.367.734.512 1.125.288.553-.325.651-1 .328-1.561-.328-.585-1.047-.885-1.715-.882H183.76c-.512 0-.962.374-.962.916 0 .345.198.688.539.832 0 0 .198.086.198.37v15.814c0 .284-.198.37-.198.37a.899.899 0 0 0-.54.83c0 .544.45.918.963.918h11.583c.669 0 1.388-.296 1.72-.885.319-.559.221-1.233-.332-1.558"/></g></svg>