<svg xmlns="http://www.w3.org/2000/svg">
    <symbol id="icon-brand-ribbon" viewBox="0 0 20 20">
      <path fill-rule="evenodd" d="M15.87 4c-1.737 0-3.13 1.175-4.356 2.204-.255.218-.506.427-.748.62-.26 0-.517.05-.767.133a2.4 2.4 0 0 0-.761-.134c-.246-.192-.494-.4-.748-.62C7.263 5.174 5.873 4 4.131 4 1.855 4 0 5.723 0 7.847c0 2.119 1.855 3.847 4.131 3.847 1.65 0 2.987-1.05 4.165-2.041-.654 1.902-.999 3.74-.999 5.397 0 .35.282.635.627.635a.631.631 0 0 0 .629-.635c0-3.015.864-5.307 1.381-6.046h.008c.517.74 1.38 3.028 1.38 6.046 0 .35.284.635.631.635a.63.63 0 0 0 .626-.635c0-1.696-.368-3.641-1.047-5.543 1.22 1.03 2.604 2.187 4.337 2.187 2.277 0 4.131-1.726 4.131-3.847C20 5.723 18.146 4 15.87 4zM7.68 8.517c-1.115.94-2.265 1.911-3.55 1.911-1.587 0-2.872-1.159-2.872-2.581 0-1.421 1.285-2.58 2.872-2.58 1.285 0 2.435.97 3.55 1.912.279.228.548.46.821.668-.273.212-.542.443-.82.67zm8.188 1.915c-1.283 0-2.436-.972-3.55-1.915-.278-.227-.543-.458-.82-.67.277-.208.542-.44.82-.668 1.114-.942 2.267-1.912 3.55-1.912 1.586 0 2.874 1.159 2.874 2.58 0 1.422-1.288 2.585-2.874 2.585z"/>
    </symbol>
    <symbol id="icon-hamburger" viewBox="0 0 20 20">
      <path fill-rule="evenodd" d="M20 17.753c0-.932-.756-1.688-1.688-1.688H1.688a1.688 1.688 0 1 0 0 3.377h16.624c.932 0 1.688-.756 1.688-1.689m0-7.532c0-.933-.756-1.689-1.688-1.689H1.688a1.688 1.688 0 1 0 0 3.377h16.624c.932 0 1.688-.756 1.688-1.688m-1.688-5.844H1.688a1.688 1.688 0 1 1 0-3.377h16.624a1.688 1.688 0 1 1 0 3.377"/>
    </symbol>
    <symbol id="icon-heart" viewBox="0 0 20 20">
      <path fill-rule="evenodd" d="M15.597 8.474a.935.935 0 0 1 0 1.317.927.927 0 0 1-1.314 0 .93.93 0 1 1 1.314-1.317m1.123-1.351a.814.814 0 1 1-1.624.107c-.087-1.319-.95-1.535-1.121-1.565a.808.808 0 0 1-.69-.916.82.82 0 0 1 .924-.695c.806.11 2.368.894 2.511 3.069m.227 2.694A113.414 113.414 0 0 1 10 16.944a113.22 113.22 0 0 1-6.948-7.127c-1.217-1.366-1.52-3.032-.83-4.57C2.86 3.818 4.23 2.86 5.63 2.86c2.776 0 3.404 2.076 3.468 2.32.103.41.471.704.895.704H10a.94.94 0 0 0 .9-.703c.063-.237.688-2.318 3.469-2.318 1.4 0 2.77.957 3.409 2.384.69 1.54.386 3.204-.832 4.57m2.53-5.332C18.526 2.368 16.522 1 14.37 1c-2.152 0-3.548.947-4.37 1.972C9.178 1.947 7.782 1 5.63 1 3.477 1 1.472 2.368.524 4.485c-.988 2.205-.562 4.66 1.14 6.57 4.076 4.573 7.679 7.815 7.715 7.847a.928.928 0 0 0 1.242 0c.036-.032 3.638-3.274 7.715-7.847 1.702-1.91 2.128-4.365 1.14-6.57"/>
    </symbol>
    <symbol id="icon-search" viewBox="0 0 20 20">
      <path fill-rule="evenodd" d="M14.371 8.94a.91.91 0 0 1 .265.638.904.904 0 1 1-.265-.637m1.665-1.735a.791.791 0 1 1-1.568-.21c.158-1.183-1.161-1.801-1.217-1.827a.793.793 0 0 1-.394-1.045.789.789 0 0 1 1.039-.4c.1.045 2.455 1.118 2.14 3.482m-3.527 5.233c-2.883 0-5.229-2.385-5.229-5.316 0-2.93 2.346-5.315 5.23-5.315 2.882 0 5.228 2.385 5.228 5.315 0 2.931-2.346 5.316-5.229 5.316M12.51 0C8.63 0 5.473 3.195 5.473 7.123c0 1.65.558 3.17 1.492 4.38L.293 18.268a1.017 1.017 0 0 0 1.448 1.428l6.684-6.778a6.94 6.94 0 0 0 4.084 1.328c3.88 0 7.037-3.196 7.037-7.124C19.546 3.195 16.389 0 12.509 0"/>
    </symbol>
    <symbol id="icon-social-facebook-square" viewBox="0 0 20 20">
      <path fill-rule="evenodd" d="M2.222 0h15.556C19.005 0 20 .995 20 2.222v15.556A2.222 2.222 0 0 1 17.778 20H2.222A2.222 2.222 0 0 1 0 17.778V2.222C0 .995.995 0 2.222 0zm14.445 2.222h-2.778A3.889 3.889 0 0 0 10 6.112v2.777H7.778v3.333H10V20h3.333v-7.778h3.334V8.89h-3.334V6.667c0-.614.498-1.111 1.111-1.111h2.223V2.222z"/>
    </symbol>
    <symbol id="icon-social-facebook" viewBox="0 0 20 20">
      <path fill-rule="evenodd" d="M15 0v4h-2c-.69 0-1 .81-1 1.5V8h3v4h-3v8H8v-8H5V8h3V4c0-1.105.391-2.047 1.172-2.828A3.854 3.854 0 0 1 12 0h3z"/>
    </symbol>
    <symbol id="icon-social-googleplus" viewBox="0 0 20 20">
      <path fill-rule="evenodd" d="M18 0a2 2 0 0 1 2 2v16a2 2 0 0 1-2 2H2a2 2 0 0 1-2-2V2a2 2 0 0 1 2-2h16zm0 10h-2V8h-1v2h-2v1h2v2h1v-2h2v-1zM7 9.29V11h2.86c-.15.71-.86 2.14-2.86 2.14-1.71 0-3.07-1.43-3.07-3.14 0-1.71 1.36-3.14 3.07-3.14 1 0 1.64.43 2 .78l1.36-1.28C9.5 5.5 8.36 5 7 5c-2.79 0-5 2.21-5 5s2.21 5 5 5c2.86 0 4.79-2 4.79-4.86 0-.35 0-.57-.08-.85H7z"/>
    </symbol>
    <symbol id="icon-social-instagram" viewBox="0 0 20 20">
      <path fill-rule="evenodd" d="M5.8 0h8.4C17.4 0 20 2.6 20 5.8v8.4a5.8 5.8 0 0 1-5.8 5.8H5.8C2.6 20 0 17.4 0 14.2V5.8A5.8 5.8 0 0 1 5.8 0zm-.2 2A3.6 3.6 0 0 0 2 5.6v8.8C2 16.39 3.61 18 5.6 18h8.8a3.6 3.6 0 0 0 3.6-3.6V5.6C18 3.61 16.39 2 14.4 2H5.6zm9.65 1.5a1.25 1.25 0 1 1 0 2.5 1.25 1.25 0 0 1 0-2.5zM10 5a5 5 0 1 1 0 10 5 5 0 0 1 0-10zm0 2a3 3 0 1 0 0 6 3 3 0 0 0 0-6z"/>
    </symbol>
    <symbol id="icon-social-pinterest" viewBox="0 0 20 20">
      <path fill-rule="evenodd" d="M11 15.25c-1 0-1.96-.43-2.65-1.15l-1.19 4-.08.26-.04-.02c-.25.41-.68.66-1.17.66-.75 0-1.37-.62-1.37-1.38l.02-.18-.02-.01.06-.22 2.31-6.95s-.25-.76-.25-1.84c0-2.15 1.16-2.8 2.08-2.8.93 0 1.78.33 1.78 1.64 0 1.68-1.12 2.54-1.12 3.74 0 .94.76 1.69 1.68 1.69 2.92 0 3.96-2.19 3.96-4.25 0-2.73-2.36-4.94-5.25-4.94-2.9 0-5.25 2.21-5.25 4.94 0 .84.25 1.68.68 2.41.11.2.17.42.17.65 0 .69-.56 1.25-1.25 1.25-.44 0-.85-.25-1.08-.62A7.226 7.226 0 0 1 2 8.44C2 4.33 5.48 1 9.75 1s7.75 3.33 7.75 7.44c0 3.28-2.04 6.81-6.5 6.81z"/>
    </symbol>
    <symbol id="icon-social-twitter" viewBox="0 0 20 20">
      <path fill-rule="evenodd" d="M19.018 3.818c-.7.318-1.455.527-2.236.627a3.907 3.907 0 0 0 1.709-2.164 7.854 7.854 0 0 1-2.473.955C15.3 2.454 14.291 2 13.145 2c-2.136 0-3.882 1.745-3.882 3.9 0 .309.036.609.1.891a11.085 11.085 0 0 1-8.036-4.073A3.862 3.862 0 0 0 .8 4.673c0 1.355.682 2.555 1.736 3.236a3.859 3.859 0 0 1-1.773-.455v.027a3.902 3.902 0 0 0 3.127 3.827 3.833 3.833 0 0 1-1.754.063 3.89 3.89 0 0 0 3.636 2.709 7.743 7.743 0 0 1-4.845 1.673A7.79 7.79 0 0 1 0 15.698a11.041 11.041 0 0 0 5.982 1.755c7.164 0 11.1-5.945 11.1-11.1l-.009-.509a7.77 7.77 0 0 0 1.945-2.027v.001z"/>
    </symbol>
    <symbol id="icon-vendor" viewBox="0 0 20 20">
      <path d="M16.55 1A14.12 14.12 0 0 0 10 2.68 14.12 14.12 0 0 0 3.45 1 12.49 12.49 0 0 0 1 1.25v16A12.49 12.49 0 0 1 3.45 17 13.81 13.81 0 0 1 9 18.2c.33.14.67.3 1 .48.33-.18.67-.34 1-.48a13.81 13.81 0 0 1 5.55-1.2 12.49 12.49 0 0 1 2.45.25v-16A12.49 12.49 0 0 0 16.55 1zM9 16a15.77 15.77 0 0 0-5.55-1H3V3h.45A12.13 12.13 0 0 1 9 4.41V16zm8-1h-.45A15.77 15.77 0 0 0 11 16V4.41A12.13 12.13 0 0 1 16.55 3H17v12zM7.5 8.8a6.79 6.79 0 0 0-3-.55v-2a6.79 6.79 0 0 1 3 .55v2zM4.84 6.24a6.83 6.83 0 0 1 2.66.56v2a6.83 6.83 0 0 0-2.66-.56H4.5v-2h.34zM7.5 12.8a6.79 6.79 0 0 0-3-.55v-2a6.79 6.79 0 0 1 3 .55v2zm-2.66-2.56a6.83 6.83 0 0 1 2.66.56v2a6.83 6.83 0 0 0-2.66-.56H4.5v-2h.34zM12.5 6.8a6.79 6.79 0 0 1 3-.55v2a6.79 6.79 0 0 0-3 .55v-2zm2.66-.56h.34v2h-.34a6.83 6.83 0 0 0-2.66.56v-2a6.83 6.83 0 0 1 2.66-.56zM12.5 10.8a6.79 6.79 0 0 1 3-.55v2a6.79 6.79 0 0 0-3 .55v-2zm2.66-.56h.34v2h-.34a6.83 6.83 0 0 0-2.66.56v-2a6.83 6.83 0 0 1 2.66-.56z"/>
    </symbol></svg>