<svg xmlns="http://www.w3.org/2000/svg" width="12" height="20" viewBox="0 0 12 20">
  <g fill="#4D4D4A" fill-rule="evenodd" opacity=".2" transform="matrix(-1 0 0 1 13 -1)">
    <path d="M2.58603532,10.4466172 L3.21445965,11.5518543 C3.25371324,11.6205141 3.32231531,11.6698749 3.39531965,11.6891739 C3.4165973,11.6932564 3.44264408,11.6984523 3.46172059,11.6984523 C3.51601528,11.6984523 3.57324481,11.6795244 3.62203666,11.650576 L4.67344595,10.9469059 C6.10455119,9.99940071 7.11047034,8.55197803 7.50960966,6.87890586 C7.90214558,5.19544194 7.65561835,3.4451739 6.80524615,1.94616359 L6.17462069,0.840555346 C6.13756823,0.769297614 6.07373529,0.716967717 5.99596182,0.704720294 C5.97505103,0.69507081 5.95047168,0.692472872 5.93286259,0.692472872 C5.87453248,0.692472872 5.82390636,0.710287305 5.77291337,0.737751222 L4.72480579,1.44142133 C3.28893141,2.39189555 2.28374598,3.83634916 1.88717465,5.51387493 C1.48693476,7.19102957 1.74006539,8.94426669 2.58603532,10.4466172 L2.58603532,10.4466172 Z M3.31644561,5.86199864 C3.6400126,4.50253473 4.45846833,3.39729761 5.52822042,2.68546256 C6.16544929,3.80888524 6.39730228,5.16946256 6.07740385,6.52595741 C5.75383686,7.88801926 4.93501427,8.99251411 3.86342791,9.70434916 C3.22913389,8.58092648 2.99581347,7.21478215 3.31644561,5.86199864 L3.31644561,5.86199864 Z" transform="rotate(20 4.696 6.195)"/>
    <path d="M2.58603532,20.4466172 L3.21445965,21.5518543 C3.25371324,21.6205141 3.32231531,21.6698749 3.39531965,21.6891739 C3.4165973,21.6932564 3.44264408,21.6984523 3.46172059,21.6984523 C3.51601528,21.6984523 3.57324481,21.6795244 3.62203666,21.650576 L4.67344595,20.9469059 C6.10455119,19.9994007 7.11047034,18.551978 7.50960966,16.8789059 C7.90214558,15.1954419 7.65561835,13.4451739 6.80524615,11.9461636 L6.17462069,10.8405553 C6.13756823,10.7692976 6.07373529,10.7169677 5.99596182,10.7047203 C5.97505103,10.6950708 5.95047168,10.6924729 5.93286259,10.6924729 C5.87453248,10.6924729 5.82390636,10.7102873 5.77291337,10.7377512 L4.72480579,11.4414213 C3.28893141,12.3918956 2.28374598,13.8363492 1.88717465,15.5138749 C1.48693476,17.1910296 1.74006539,18.9442667 2.58603532,20.4466172 L2.58603532,20.4466172 Z M3.31644561,15.8619986 C3.6400126,14.5025347 4.45846833,13.3972976 5.52822042,12.6854626 C6.16544929,13.8088852 6.39730228,15.1694626 6.07740385,16.5259574 C5.75383686,17.8880193 4.93501427,18.9925141 3.86342791,19.7043492 C3.22913389,18.5809265 2.99581347,17.2147821 3.31644561,15.8619986 L3.31644561,15.8619986 Z" transform="scale(1 -1) rotate(20 96.546 0)"/>
    <path d="M4.92521316,15.4072776 L5.55363749,16.5125147 C5.59289108,16.5811745 5.66149315,16.6305353 5.73449749,16.6498343 C5.75577514,16.6539168 5.78182192,16.6591126 5.80089843,16.6591126 C5.85519312,16.6591126 5.91242265,16.6401848 5.9612145,16.6112364 L7.01262379,15.9075663 C8.44372903,14.9600611 9.44964818,13.5126384 9.8487875,11.8395663 C10.2413234,10.1561023 9.99479619,8.4058343 9.14442399,6.90682399 L8.51379853,5.80121574 C8.47674607,5.72995801 8.41291313,5.67762811 8.33513966,5.66538069 C8.31422887,5.6557312 8.28964952,5.65313326 8.27204043,5.65313326 C8.21371032,5.65313326 8.1630842,5.6709477 8.11209121,5.69841162 L7.06398363,6.40208172 C5.62810925,7.35255595 4.62292382,8.79700955 4.22635249,10.4745353 C3.8261126,12.15169 4.07924323,13.9049271 4.92521316,15.4072776 L4.92521316,15.4072776 Z M5.65562345,10.822659 C5.97919044,9.46319512 6.79764617,8.35795801 7.86739826,7.64612296 C8.50462713,8.76954564 8.73648012,10.130123 8.41658169,11.4866178 C8.0930147,12.8486797 7.27419211,13.9531745 6.20260575,14.6650096 C5.56831173,13.5415869 5.33499131,12.1754425 5.65562345,10.822659 L5.65562345,10.822659 Z" transform="scale(1 -1) rotate(77 21.06 0)"/>
  </g>
</svg>
