<svg xmlns="http://www.w3.org/2000/svg" width="234" height="72" viewBox="0 0 234 72">
  <g fill="#4D4D4A" fill-rule="evenodd">
    <path d="M37.0106341 57.9358763C34.9624771 57.9358763 33.3189622 59.3268866 31.8739165 60.5434639 31.5723608 60.8025155 31.2763081 61.0493196 30.9908941 61.2768247 30.6845693 61.2768247 30.3819131 61.3373196 30.0865941 61.4349278 29.7967778 61.3373196 29.4941216 61.2768247 29.1888974 61.2768247 28.8987143 61.0493196 28.6063301 60.8025155 28.3069756 60.5434639 26.858995 59.3242887 25.2198824 57.9358763 23.1654888 57.9358763 20.4808366 57.9358763 18.2925406 59.9752577 18.2925406 62.4882062 18.2925406 64.9959588 20.4808366 67.0412784 23.1654888 67.0412784 25.111293 67.0412784 26.6880401 65.7983505 28.0780575 64.625567 27.3058256 66.8764948 26.899716 69.0505979 26.899716 71.0120412 26.899716 71.4262268 27.2317207 71.7635876 27.6392977 71.7635876 28.0509101 71.7635876 28.3807137 71.4262268 28.3807137 71.0120412 28.3807137 67.4443299 29.4005733 64.7324536 30.010288 63.8573196L30.0168914 63.8573196 30.0194594 63.8573196C30.6288072 64.7324536 31.6479332 67.4413608 31.6479332 71.0120412 31.6479332 71.4262268 31.982139 71.7635876 32.3915503 71.7635876 32.7991273 71.7635876 33.1292977 71.4262268 33.1292977 71.0120412 33.1292977 69.0049485 32.6960408 66.7031753 31.8951941 64.4526186 33.3340033 65.6706804 34.9665125 67.0412784 37.0106341 67.0412784 39.6956532 67.0412784 41.8828486 64.9985567 41.8828486 62.4882062 41.8828486 59.9752577 39.6956532 57.9358763 37.0106341 57.9358763L37.0106341 57.9358763zM27.3527832 63.2813196C26.0368707 64.3939794 24.6813378 65.5430103 23.1654888 65.5430103 21.2930558 65.5430103 19.7772068 64.171299 19.7772068 62.4882062 19.7772068 60.8065979 21.2930558 59.4352577 23.1654888 59.4352577 24.6813378 59.4352577 26.0368707 60.5831753 27.3527832 61.6980619 27.6814861 61.967134 27.9991834 62.2417732 28.321283 62.4882062 27.9991834 62.7394639 27.6814861 63.0122474 27.3527832 63.2813196L27.3527832 63.2813196zM37.0106341 65.5470928C35.4966194 65.5470928 34.137418 64.3976907 32.8229729 63.2813196 32.4946368 63.0122474 32.1824424 62.7394639 31.8566742 62.4882062 32.1824424 62.2417732 32.4946368 61.967134 32.8229729 61.6980619 34.137418 60.5831753 35.4966194 59.4352577 37.0106341 59.4352577 38.8804992 59.4352577 40.4000167 60.8065979 40.4000167 62.4882062 40.4000167 64.171299 38.8804992 65.5470928 37.0106341 65.5470928L37.0106341 65.5470928zM26.0324684 50.8416495C25.6366308 49.1667216 24.6285105 47.7181856 23.1952041 46.7673402L22.1423274 46.0692371C22.0939024 46.0365773 22.0451106 46.0213608 21.9878811 46.0213608 21.9636686 46.0213608 21.9394561 46.0243299 21.916711 46.0306392 21.8437066 46.0503093 21.7732703 46.0996701 21.7365847 46.1668454L21.1121958 47.2739381C20.263291 48.774433 20.0152964 50.5284124 20.4078323 52.2048247 20.8044036 53.8823505 21.8132576 55.3268041 23.243996 56.2776495L24.2976064 56.976866C24.3449308 57.0084124 24.4039947 57.0291959 24.4542539 57.0291959 24.4773659 57.0291959 24.5019452 57.0291959 24.5250571 57.018433 24.5980615 57.0002474 24.6637287 56.9494021 24.7040829 56.8796289L25.3262706 55.7740206C26.173708 54.2705567 26.4286729 52.5221443 26.0324684 50.8416495L26.0324684 50.8416495zM24.051446 55.0332371C22.9820608 54.3214021 22.1595697 53.2183918 21.8396712 51.856701 21.5161042 50.4998351 21.7556612 49.1377732 22.3892215 48.0158351 23.4589736 48.7235876 24.2774293 49.8306804 24.5980615 51.1871753 24.9238296 52.5492371 24.6850063 53.905732 24.051446 55.0332371L24.051446 55.0332371zM6.78940394 44.3041237C6.38953091 42.6265979 5.38361176 41.1821443 3.95140595 40.2316701L2.89999666 39.528C2.85010424 39.5005361 2.79360842 39.4827216 2.74298229 39.4827216 2.71987036 39.4827216 2.69675844 39.4853196 2.6729128 39.4949691 2.59697361 39.5072165 2.53387437 39.5595464 2.49535449 39.6308041L1.86693017 40.7364124C1.01729168 42.2354227.771131306 43.9856907 1.16696893 45.6691546 1.56207284 47.3422268 2.57055997 48.7896495 3.99946408 49.7371546L5.05710992 50.4408247C5.09856465 50.4697732 5.15579419 50.488701 5.21045573 50.488701 5.23503508 50.488701 5.25521216 50.4835052 5.27759038 50.4794227 5.352429 50.4601237 5.41552823 50.4107629 5.46028466 50.3421031L6.08320615 49.236866C6.93284464 47.7345155 7.18670899 45.9812784 6.78940394 44.3041237L6.78940394 44.3041237zM4.80764784 48.4945979C3.73936318 47.7827629 2.91833946 46.678268 2.59623989 45.3162062 2.27083862 43.9597113 2.50709389 42.599134 3.14175476 41.4757113 4.2144417 42.1875464 5.03179686 43.2927835 5.3557307 44.6522474 5.67783027 46.0050309 5.44377614 47.3711753 4.80764784 48.4945979L4.80764784 48.4945979z"/>
    <path d="M42.0912229,5.51282474 C40.524014,3.54989691 37.563853,2.89298969 34.9540394,2.31030928 C33.9712322,2.09208247 32.9590765,1.86123711 32.1952823,1.58734021 C32.1556619,1.57063918 32.1193431,1.56395876 32.078989,1.55987629 L31.7822025,1.42292784 L31.7565226,1.41030928 C31.7447832,1.40771134 31.7396472,1.39769072 31.7290084,1.39769072 C31.5367758,1.30602062 31.3760929,1.21546392 31.2520956,1.11414433 C31.243291,1.10560825 31.2337528,1.10189691 31.2282499,1.09336082 C30.8826716,0.86028866 30.616701,0.610515464 30.4215336,0.316948454 C30.3386241,0.201896907 30.2072897,0.131752577 30.0711861,0.131752577 L30.0642158,0.131752577 C29.9273785,0.131752577 29.7967778,0.201896907 29.7146021,0.316948454 C29.5065947,0.616082474 29.2369556,0.879216495 28.8778035,1.1171134 C28.7439011,1.21954639 28.6008273,1.30602062 28.418133,1.38804124 C28.4074942,1.39249485 28.3928199,1.40325773 28.3807137,1.41030928 C28.3686074,1.41550515 28.362004,1.42292784 28.3524658,1.43072165 L28.0956666,1.55171134 C28.0542118,1.55542268 28.0090885,1.55987629 27.9657995,1.57880412 C27.1987036,1.86123711 26.1832462,2.088 25.1989716,2.30325773 C22.5693478,2.89298969 19.6084531,3.54989691 18.0397768,5.51282474 C16.8166789,7.04486598 16.3430678,8.75282474 16.6607651,10.4618969 C17.0276211,12.456 18.4323127,14.3974021 20.8132082,16.2382268 C20.8132082,16.3521649 20.8293498,16.4590515 20.8667691,16.5510928 C22.5953946,20.5537732 23.7539258,26.8797526 23.7539258,30.2845361 C23.7539258,31.7850309 23.6706495,33.0698969 23.6009469,34.2085361 C23.4354948,36.9697732 23.2957227,39.1409072 24.3078784,42.3330309 C25.0448921,44.6607835 25.8035503,45.7882887 26.4066615,46.6990515 C27.1968694,47.874433 27.6697467,48.5821856 27.6697467,51.3790515 L27.6726816,58.4665979 C27.6726816,58.6202474 27.7449522,58.752 27.8726181,58.8355052 C27.9408533,58.8807835 28.0182599,58.9056495 28.1019031,58.9056495 C28.1620675,58.9056495 28.2225987,58.8908041 28.280562,58.8670515 C28.7915924,58.627299 29.1412061,58.1069691 29.1533124,57.5409897 L29.1533124,57.5313402 C29.1577147,57.5009072 29.1533124,57.4626804 29.1533124,57.4270515 L29.1533124,51.3790515 C29.1533124,49.8087835 28.9951975,48.649732 28.6580568,47.7181856 C31.9164718,42.0394639 31.9164718,36.9946392 31.9164718,34.2868454 L31.9164718,33.7242062 C31.9212409,31.1140206 31.923442,27.8729072 30.9468714,24.8121649 C31.2201791,23.7098969 31.653436,22.7330722 32.2789255,21.8100619 L32.2910317,21.7974433 C32.2947003,21.7892784 32.298002,21.7866804 32.298002,21.7807423 C33.2742058,20.3696907 34.6381764,19.1720412 36.4878644,18.1065155 C36.7417287,17.9651134 36.980552,17.8196289 37.2197421,17.6745155 C35.7016919,22.0112165 34.8803014,27.4130722 34.8803014,30.2845361 C34.8803014,31.8147216 34.9624771,33.1084948 35.0263101,34.2508454 L35.034014,34.3113402 C35.2001998,37.0068866 35.3241971,38.957567 34.397152,41.8750515 C33.7239713,44.0023918 33.0584945,44.9884948 32.476294,45.8569485 C31.6295904,47.1254845 30.9600782,48.1256907 30.9600782,51.3790515 C30.9600782,51.3790515 30.9600782,57.4804948 30.9674153,57.5090722 L30.9956632,57.7918763 C30.9989649,57.8122887 30.9989649,57.8249072 31.0033672,57.8412371 C31.1042526,58.2936495 31.4135122,58.6751753 31.8357634,58.8670515 C31.8926261,58.8908041 31.9538911,58.9056495 32.0078189,58.9056495 C32.0907284,58.9056495 32.1703361,58.8807835 32.2433405,58.8355052 C32.3640361,58.7571959 32.4425433,58.6202474 32.4425433,58.4721649 L32.4425433,51.3790515 C32.4425433,48.5877526 32.9168881,47.874433 33.7019599,46.7020206 C34.3102072,45.7882887 35.0673979,44.6607835 35.8051453,42.3330309 C36.814733,39.1449897 36.6808306,36.9779381 36.5113431,34.2233814 C36.4431079,33.1522887 36.3609322,31.8188041 36.3609322,30.2845361 C36.3609322,26.886433 37.517996,20.5537732 39.2436866,16.5510928 C39.2822065,16.4590515 39.3005493,16.3603299 39.3005493,16.2478763 C41.6961189,14.4096495 43.1037454,12.4604536 43.4684003,10.4618969 C43.7890324,8.75282474 43.3121196,7.04486598 42.0912229,5.51282474 L42.0912229,5.51282474 Z M30.435841,33.7186392 L30.435841,34.2868454 C30.435841,36.9118763 30.4310718,41.1791753 27.8263943,46.1505155 C27.765863,46.0532784 27.6998289,45.958268 27.6323274,45.8569485 C27.0479258,44.9884948 26.3872182,43.9953402 25.7162386,41.8750515 C24.7932289,38.957567 24.9117234,37.0068866 25.080844,34.3113402 C25.1509135,33.1482062 25.2312549,31.8340206 25.2312549,30.2845361 C25.2312549,27.191134 24.3533685,21.8375258 22.884844,17.662268 C23.1357735,17.8114639 23.3812001,17.9595464 23.6427685,18.1065155 C30.4519826,22.037567 30.4431781,28.5134845 30.435841,33.7186392 L30.435841,33.7186392 Z M42.0160174,10.1835464 C41.6047718,12.3929072 39.4421557,14.682433 35.7596552,16.8075464 C34.4587838,17.5535258 33.3912329,18.3863505 32.4946368,19.2859794 C31.6816839,20.1789278 31.2689709,20.6755052 31.0169409,21.0458969 C30.6764985,21.5287423 30.3888834,22.0253196 30.1258476,22.5371134 L30.0642158,22.7167423 L30.0044183,22.5371134 C29.7413826,22.0253196 29.4493652,21.5287423 29.1107571,21.0458969 C28.863863,20.6755052 28.4489489,20.1789278 27.6315937,19.2859794 C26.7430685,18.3863505 25.6733164,17.5535258 24.3742793,16.8075464 C20.6910451,14.682433 18.528429,12.3929072 18.1116806,10.1835464 C17.8732242,8.90090722 18.2356779,7.64461856 19.1876692,6.45290722 C20.4313111,4.90008247 23.1203655,4.30181443 25.4928233,3.77220619 C27.3619546,3.35839175 29.1573478,2.95756701 30.0642158,2.04791753 C30.9773204,2.95756701 32.7683114,3.35839175 34.6381764,3.77220619 C37.0106341,4.30181443 39.7026235,4.90008247 40.9429636,6.45290722 C41.8942212,7.64461856 42.2544738,8.90090722 42.0160174,10.1835464 L42.0160174,10.1835464 Z"/>
    <path d="M28.7439011 17.9747629C28.7273926 15.745732 28.7178543 15.12 29.4071767 14.416701 29.5065947 14.3150103 29.6779165 14.1973608 30.0642158 14.1973608 30.4549175 14.1973608 30.6211032 14.3150103 30.7252903 14.416701 31.4135122 15.12 31.4006722 15.745732 31.3863649 17.9747629L31.3863649 21.0458969 32.8145352 21.0458969 32.8145352 17.8949691C32.8229729 15.5783505 32.8288426 14.5221031 31.7290084 13.4042474 31.3129937 12.9778144 30.7509703 12.7584742 30.0642158 12.7584742 29.3796625 12.7584742 28.8176392 12.9778144 28.395021 13.4083299 27.3010565 14.5221031 27.3058256 15.582433 27.3223341 17.9005361L27.3223341 21.0458969 28.7439011 21.0458969 28.7439011 17.9747629M21.1096278 32.5076289C21.1096278 27.8098144 19.1388774 24.366433 17.2304925 21.0458969 15.048433 17.2477113 12.9889034 13.6621856 14.1973271 8.48969072L14.3422352 7.88325773C14.3891928 7.69360825 14.3169222 7.4868866 14.1595409 7.36329897 14.0744303 7.29352577 13.9643735 7.25084536 13.8480802 7.25084536 13.7681056 7.25084536 13.6862967 7.27014433 13.6202626 7.3057732L13.0677775 7.58709278C7.71204678 10.3138144.162517207 18.4342268.162517207 27.9426804.162517207 35.4804124 4.09447979 38.356701 8.36651788 40.3244536L8.36651788 50.386268C8.36651788 55.8382268 11.6568493 56.6517526 13.6202626 56.6517526 16.2818029 56.6517526 18.9814962 54.2085773 18.9814962 49.5385979 18.9814962 47.4955052 18.3717815 45.5054845 17.2635095 43.9170309 19.0310217 42.0505979 21.1096278 38.5649072 21.1096278 32.5076289L21.1096278 32.5076289zM8.30121751 38.5649072C4.8663448 36.8762474 1.71321751 34.4044948 1.71321751 27.9426804 1.71321751 20.1611134 7.22889743 13.1036289 12.3960641 9.77789691 11.7929529 14.6950515 13.8744938 18.3202887 15.8859653 21.8289897 17.6986007 24.978433 19.5614955 28.2280825 19.5614955 32.5076289 19.5614955 36.8421031 18.4147036 40.367134 16.2465847 42.720866L16.2399813 42.720866C15.8995389 42.3838763 15.5293812 42.0706392 15.1342773 41.7922887 13.9185165 40.954268 12.4683348 40.3456082 10.9374447 39.6924124L8.37165386 38.6049897 8.37165386 38.5934845 8.30121751 38.5649072 8.30121751 38.5649072zM17.5063682 49.5385979C17.5063682 53.2269278 15.5506589 55.1597938 13.6202626 55.1597938 11.0779506 55.1597938 9.84421383 53.5943505 9.84421383 50.386268L9.84421383 40.8499794C10.0203047 40.9282887 10.1967624 40.998433 10.3647825 41.0726598 11.8292716 41.6924536 13.216721 42.2781031 14.2978456 43.025567 16.3056485 44.4165773 17.5063682 46.8512165 17.5063682 49.5385979L17.5063682 49.5385979z"/>
    <path d="M9.84421383 32.9025155C9.84421383 32.4155876 10.0801022 31.6350928 10.7162305 31.6350928 11.3538263 31.6350928 11.5871467 32.4155876 11.5871467 32.9025155L11.5871467 40.8436701 13.0648426 41.4634639 13.0648426 32.9025155C13.0648426 31.5682887 12.2397835 30.1509278 10.7162305 30.1509278 9.19524557 30.1509278 8.37312128 31.5682887 8.37312128 32.9025155L8.37312128 39.4827216 9.84421383 40.1065979 9.84421383 32.9025155M34.8014273 55.7740206L35.4302185 56.8796289C35.469839 56.9494021 35.5329382 57.0002474 35.6088774 57.018433 35.6308887 57.0291959 35.653267 57.0291959 35.6774795 57.0291959 35.7292061 57.0291959 35.783134 57.0084124 35.8355944 56.976866L36.8899385 56.2776495C38.3188426 55.3268041 39.3280635 53.8823505 39.7228005 52.2048247 40.1186382 50.5284124 39.8717441 48.774433 39.0224724 47.2739381L38.3911133 46.1668454C38.3584631 46.0996701 38.2883936 46.0503093 38.2102533 46.0306392 38.1919105 46.0243299 38.1669642 46.0213608 38.1434855 46.0213608 38.0895576 46.0213608 38.0356298 46.0365773 37.9894059 46.0692371L36.934695 46.7673402C35.5061577 47.7181856 34.4943689 49.1667216 34.0977975 50.8416495 33.7019599 52.5221443 33.951422 54.2705567 34.8014273 55.7740206L34.8014273 55.7740206zM35.5329382 51.1871753C35.8524698 49.8306804 36.6694581 48.7235876 37.7425119 48.0158351 38.379007 49.1377732 38.6123274 50.4998351 38.292429 51.856701 37.9703294 53.2183918 37.1526074 54.3214021 36.0802873 55.0332371 35.4448927 53.905732 35.2071701 52.5492371 35.5329382 51.1871753L35.5329382 51.1871753zM54.0448587 49.236866L54.673283 50.3421031C54.7125366 50.4107629 54.7811387 50.4601237 54.854143 50.4794227 54.8754206 50.4835052 54.9014674 50.488701 54.9205439 50.488701 54.9748386 50.488701 55.0320682 50.4697732 55.08086 50.4408247L56.1322693 49.7371546C57.5633745 48.7896495 58.5692937 47.3422268 58.968433 45.6691546 59.3609689 43.9856907 59.1144417 42.2354227 58.2640695 40.7364124L57.633444 39.6308041C57.5963916 39.5595464 57.5325586 39.5072165 57.4547852 39.4949691 57.4338744 39.4853196 57.409295 39.4827216 57.3916859 39.4827216 57.3333558 39.4827216 57.2827297 39.5005361 57.2317367 39.528L56.1836291 40.2316701C54.7477548 41.1821443 53.7425693 42.6265979 53.345998 44.3041237 52.9457581 45.9812784 53.1988887 47.7345155 54.0448587 49.236866L54.0448587 49.236866zM54.775269 44.6522474C55.098836 43.2927835 55.9172917 42.1875464 56.9870438 41.4757113 57.6242726 42.599134 57.8561256 43.9597113 57.5362272 45.3162062 57.2126602 46.678268 56.3938376 47.7827629 55.3222513 48.4945979 54.6879572 47.3711753 54.4546368 46.0050309 54.775269 44.6522474L54.775269 44.6522474z"/>
    <path d="M42.8671233,43.9170309 C41.7628867,45.5054845 41.1520715,47.4955052 41.1520715,49.5385979 C41.1520715,54.2085773 43.8491968,56.6517526 46.5169736,56.6517526 C48.4748841,56.6517526 51.7637481,55.8382268 51.7637481,50.386268 L51.7637481,40.3244536 C56.0379873,38.356701 59.9714173,35.4804124 59.9714173,27.9426804 C59.9714173,18.4342268 52.4229883,10.3138144 47.0676245,7.58709278 L46.5107371,7.3057732 C46.444703,7.27014433 46.3595924,7.25084536 46.2836532,7.25084536 C46.1706615,7.25084536 46.0580368,7.29352577 45.9637548,7.36329897 C45.8162787,7.4868866 45.744008,7.69360825 45.7916993,7.88325773 L45.9307377,8.48969072 C47.1387945,13.6621856 45.0785312,17.2477113 42.903442,21.0458969 C40.9884537,24.366433 39.0224724,27.8098144 39.0224724,32.5076289 C39.0224724,38.5649072 41.1010785,42.0505979 42.8671233,43.9170309 L42.8671233,43.9170309 Z M51.7637481,38.5934845 L51.7637481,38.6049897 L49.1979572,39.6924124 C47.6615643,40.3456082 46.2084477,40.954268 45.0003909,41.7922887 C44.605287,42.0706392 44.2329282,42.3838763 43.8880835,42.720866 C43.8880835,42.7212371 43.8880835,42.720866 43.8851487,42.720866 C41.7173966,40.367134 40.5680368,36.8421031 40.5680368,32.5076289 C40.5680368,28.2280825 42.4360675,24.978433 44.2450344,21.8289897 C46.2539379,18.3202887 48.3413485,14.6950515 47.7367698,9.77789691 C52.9024691,13.1036289 58.4221844,20.1611134 58.4221844,27.9426804 C58.4221844,34.4044948 55.2646549,36.8762474 51.8334507,38.5649072 L51.7637481,38.5934845 L51.7637481,38.5934845 Z M45.8346215,43.025567 C46.9164798,42.2781031 48.29916,41.6924536 49.7676846,41.0726598 C49.9364384,40.998433 50.1114287,40.9282887 50.2871527,40.8499794 L50.2871527,50.386268 C50.2871527,53.5943505 49.0512148,55.1597938 46.5169736,55.1597938 C44.5840094,55.1597938 42.6290337,53.2269278 42.6290337,49.5385979 C42.6290337,46.8512165 43.825718,44.4165773 45.8346215,43.025567 L45.8346215,43.025567 Z"/>
    <path d="M50.2871527,32.9025155 C50.2871527,32.4155876 50.0512643,31.6350928 49.4136686,31.6350928 C48.7764397,31.6350928 48.5434861,32.4155876 48.5434861,32.9025155 L48.5434861,40.8436701 L47.0727604,41.4634639 L47.0727604,32.9025155 C47.0727604,31.5682887 47.8919499,30.1509278 49.4136686,30.1509278 C50.9397895,30.1509278 51.7608132,31.5682887 51.7608132,32.9025155 L51.7608132,39.4827216 L50.2871527,40.1065979 L50.2871527,32.9025155"/>
    <g transform="translate(70 14)">
      <path d="M4.24768509 1.1640274L4.24768509 8.29353425C4.24768509 8.50508676 4.07139318 8.68406393 3.87070868 8.68406393 3.66411083 8.68406393 3.5003848 8.50508676 3.5003848 8.29353425L3.5003848 1.1640274.745500356 1.1640274C.535206655 1.1640274.371480627.998155251.371480627.784356164.371480627.571680365.535206655.408429224.745500356.408429224L6.98741656.408429224C7.19734067.408429224 7.37400216.571680365 7.37400216.784356164 7.37400216.998155251 7.19734067 1.1640274 6.98741656 1.1640274L4.24768509 1.1640274M13.3014018 7.85620091L13.3014018 5.2307032C13.3014018 4.10741553 12.7167188 3.29078539 11.454587 3.29078539 10.5564961 3.29078539 9.68021077 3.91757991 9.68021077 4.98058447L9.68021077 7.85620091C9.68021077 8.28117808 9.51907183 8.66010046 9.08628814 8.68406393 8.77324988 8.68406393 8.6424169 8.48299543 8.6302206 8.30289498 8.6302206 8.11642922 8.72742138 8.01945205 8.85234101 7.96141553 8.85234101 7.96178995 8.9347584 7.92696804 8.9347584 7.80640183L8.9347584.903799087C8.9347584.784356164 8.85234101.750283105 8.85234101.750283105 8.71596425.689251142 8.6302206.548465753 8.6302206.408429224 8.6302206.182648402 8.81981756.0291324201 9.02863292.0291324201 9.46067745.0291324201 9.68021077.408429224 9.68021077.855497717L9.68021077 3.50533333C9.75006228 3.36417352 10.2903951 2.5336895 11.454587 2.5336895 13.2448553 2.5336895 14.0475933 3.56486758 14.0475933 5.32505936L14.0475933 7.80640183C14.0475933 7.92696804 14.1296411 7.96141553 14.1296411 7.96141553 14.2663875 8.01945205 14.3517615 8.16173516 14.3517615 8.30289498 14.3517615 8.52905023 14.1632733 8.68406393 13.9522405 8.68406393 13.5250005 8.68406393 13.3014018 8.30289498 13.3014018 7.85620091M16.3685853 5.9866758C16.5215934 7.02721461 17.3609203 7.98500457 18.459326 7.98500457 19.2753691 7.98500457 19.8600521 7.73713242 20.2429418 7.34847489 20.3279463 7.26235616 20.4317996 7.22940639 20.5352833 7.22940639 20.7241411 7.22940639 20.9089335 7.38142466 20.9089335 7.58211872 20.9089335 7.68883105 20.8756709 7.78468493 20.8039714 7.85620091 20.2802699 8.4223379 19.5218821 8.74172603 18.459326 8.74172603 16.7777156 8.74172603 15.6120454 7.27621005 15.6120454 5.59652055 15.6120454 3.98834703 16.7777156 2.4760274 18.459326 2.4760274 20.1523936 2.4760274 21.3306296 3.97599087 21.3306296 5.59652055 21.3306296 5.82155251 21.1321627 5.9866758 20.9340652 5.9866758L16.3685853 5.9866758 16.3685853 5.9866758zM20.5722418 5.2307032C20.4317996 4.17930594 19.5555143 3.23274886 18.459326 3.23274886 17.3849433 3.23274886 16.4846349 4.17930594 16.3685853 5.2307032L20.5722418 5.2307032 20.5722418 5.2307032zM40.7234786 32.7849498L40.7234786 14.5693425C40.7234786 14.0837078 41.1462836 13.6531142 41.6304395 13.6531142 42.136401 13.6531142 42.5329654 14.0837078 42.5329654 14.5693425L42.5329654 32.7849498C42.5329654 33.2720822 42.136401 33.7026758 41.6304395 33.7026758 41.1462836 33.7026758 40.7234786 33.2720822 40.7234786 32.7849498M48.706878 33.7026758C48.1979599 33.7026758 47.7444794 33.3289954 47.7444794 32.7849498 47.7444794 32.4404749 47.9451639 32.0971233 48.2840731 31.9548402 48.2840731 31.9548402 48.4847576 31.8687215 48.4847576 31.5852785L48.4847576 15.7705114C48.4847576 15.4866941 48.2840731 15.4013242 48.2840731 15.4013242 47.9451639 15.2571689 47.7444794 14.9141918 47.7444794 14.5693425 47.7444794 14.0267945 48.1979599 13.6531142 48.706878 13.6531142L55.4920837 13.6531142C60.8355395 13.6531142 64.1714111 18.4660274 64.1714111 23.6780822 64.1714111 28.8908858 60.8355395 33.6442648 55.4920837 33.7026758L48.706878 33.7026758 48.706878 33.7026758zM50.1489976 15.4866941C50.2912877 15.6293516 50.2912877 15.8588767 50.2912877 16.029242L50.2912877 31.3239269C50.2912877 31.4965388 50.2912877 31.7264384 50.1489976 31.8687215L55.4920837 31.8687215C59.7892452 31.8687215 62.3615548 27.975032 62.3615548 23.6780822 62.3615548 19.4099635 59.8173336 15.6016438 55.4920837 15.4866941L50.1489976 15.4866941 50.1489976 15.4866941zM93.3246228 33.7026758C92.817183 33.7026758 92.3640721 33.3289954 92.3640721 32.7849498 92.3640721 32.4404749 92.5614303 32.0971233 92.9021875 31.9548402 92.9021875 31.9548402 93.096589 31.8687215 93.096589 31.5852785L93.096589 15.7705114C93.096589 15.4866941 92.9021875 15.4013242 92.9021875 15.4013242 92.5614303 15.2571689 92.3640721 14.9141918 92.3640721 14.5693425 92.3640721 14.0267945 92.817183 13.6531142 93.3246228 13.6531142L100.109089 13.6531142C105.452545 13.6531142 108.788047 18.4660274 108.788047 23.6780822 108.788047 28.8908858 105.452545 33.6442648 100.109089 33.7026758L93.3246228 33.7026758 93.3246228 33.7026758zM94.7645248 15.4866941C94.9082933 15.6293516 94.9082933 15.8588767 94.9082933 16.029242L94.9082933 31.3239269C94.9082933 31.4965388 94.9082933 31.7264384 94.7645248 31.8687215L100.109089 31.8687215C104.406251 31.8687215 106.980408 27.975032 106.980408 23.6780822 106.980408 19.4099635 104.436187 15.6016438 100.109089 15.4866941L94.7645248 15.4866941 94.7645248 15.4866941zM156.155133 15.4866941L156.155133 32.757242C156.155133 33.2720822 155.729001 33.7026758 155.252607 33.7026758 154.740732 33.7026758 154.348972 33.2720822 154.348972 32.757242L154.348972 15.4866941 147.674272 15.4866941C147.166093 15.4866941 146.76842 15.0868037 146.76842 14.5693425 146.76842 14.0548767 147.166093 13.6531142 147.674272 13.6531142L162.799527 13.6531142C163.306966 13.6531142 163.733467 14.0548767 163.733467 14.5693425 163.733467 15.0868037 163.306966 15.4866941 162.799527 15.4866941L156.155133 15.4866941M82.1136401 31.260274C81.7277937 31.0333699 81.1952221 31.1797717 80.9856676 31.5467123L80.9302299 31.6418174C80.8485517 31.7927123 80.6685639 31.8840731 80.4826628 31.8687215L70.5837059 31.8687215C70.7237785 31.7264384 70.7237785 31.4965388 70.7237785 31.3239269L70.7237785 24.8526667 79.5158292 24.8526667C80.023269 24.8526667 80.4220509 24.4527763 80.4220509 23.9356895 80.4220509 23.4485571 80.023269 23.017589 79.5158292 23.017589L70.7237785 23.017589 70.7237785 16.029242C70.7237785 15.8588767 70.7237785 15.6293516 70.5837059 15.4866941L79.9452866 15.4866941C80.1334052 15.4717169 80.3126538 15.5615799 80.3954408 15.7113516L80.4505089 15.8075799C80.6596939 16.174895 81.1896783 16.3197991 81.5795902 16.0958904 82.1299019 15.7705114 82.2271026 15.0954155 81.9096294 14.5345205 81.5795902 13.9496621 80.860748 13.6504932 80.1881038 13.6531142L69.1415863 13.6531142C68.6326682 13.6531142 68.1795573 14.0267945 68.1795573 14.5693425 68.1795573 14.9141918 68.3780243 15.2571689 68.7154551 15.4013242 68.7154551 15.4013242 68.9161396 15.4866941 68.9161396 15.7705114L68.9161396 31.5852785C68.9161396 31.8687215 68.7154551 31.9548402 68.7154551 31.9548402 68.3780243 32.0971233 68.1795573 32.4404749 68.1795573 32.7849498 68.1795573 33.3289954 68.6326682 33.7026758 69.1415863 33.7026758L80.7269583 33.7026758C81.3988633 33.7037991 82.1136401 33.4065023 82.4458968 32.818274 82.7648484 32.2592511 82.6680172 31.5852785 82.1136401 31.260274M14.2146456 23.3073973C15.4590373 22.5042466 16.3604544 20.928274 16.3604544 19.2384749 16.3604544 16.1456895 13.8738885 13.6531142 10.8214884 13.6531142L3.72620106 13.6531142C3.21654374 13.6531142 2.76380247 14.0267945 2.76380247 14.5693425 2.76380247 14.9141918 2.96079112 15.2571689 3.30191781 15.4013242 3.30191781 15.4013242 3.5003848 15.4866941 3.5003848 15.7705114L3.5003848 31.352758C3.5003848 31.5852785 3.38470478 31.7829772 3.16258437 31.8687215 2.82071851 31.9825479 2.53835579 32.2978174 2.53835579 32.728411 2.53835579 33.2443744 2.96079112 33.7026758 3.4689701 33.7026758L11.8677827 33.7026758C14.8351783 33.7026758 17.3213747 31.2666393 17.3213747 28.1742283 17.3213747 26.1410776 16.0222844 24.1652146 14.2146456 23.3073973L14.2146456 23.3073973zM11.8677827 31.8687215L5.11251331 31.8687215C5.25332509 31.7829772 5.30691487 31.4965388 5.30691487 31.2363105L5.30691487 16.029242C5.30691487 15.8588767 5.30691487 15.6293516 5.16647268 15.4866941L10.8214884 15.4866941C12.8848798 15.4866941 14.5520764 17.1476621 14.5520764 19.2384749 14.5520764 21.3862009 13.2799659 22.5888676 11.2716425 22.5888676L7.48524716 22.5888676C6.96856774 22.5888676 6.56424206 22.9973699 6.56424206 23.5200731 6.56424206 24.0154429 6.96856774 24.4527763 7.48524716 24.4527763L11.8677827 24.4527763C13.9008682 24.4527763 15.544781 25.969589 15.544781 28.1742283 15.544781 30.2358356 13.9008682 31.8687215 11.8677827 31.8687215L11.8677827 31.8687215zM139.290613 13.6531142L131.740366 13.6531142C131.232188 13.6531142 130.778707 14.0267945 130.778707 14.5693425 130.778707 14.9141918 130.979392 15.2571689 131.316083 15.4013242 131.316083 15.4013242 131.515659 15.4866941 131.515659 15.7705114L131.515659 31.5852785C131.515659 31.8687215 131.316083 31.9548402 131.316083 31.9548402 130.979392 32.0971233 130.778707 32.4404749 130.778707 32.7849498 130.778707 33.3289954 131.232188 33.7026758 131.740366 33.7026758 132.785922 33.7026758 133.326254 32.7849498 133.326254 31.6976073L133.326254 16.029242C133.326254 15.8588767 133.326254 15.6293516 133.182856 15.4866941L139.290613 15.4866941C141.380614 15.4866941 143.04855 17.2056986 143.04855 19.3230959 143.04855 21.4139087 141.350678 23.1037078 139.290613 23.1037078L135.495347 23.1037078C134.991234 23.1037078 134.591713 23.5047215 134.591713 24.0210594 134.591713 24.5081918 134.991234 24.9372877 135.495347 24.9372877L139.401858 24.9372877C142.397711 24.9372877 144.887603 22.332758 144.887603 19.3230959 144.887603 16.2022283 142.372579 13.6531142 139.290613 13.6531142"/>
      <path d="M44.4426096 38.0891142C44.1328976 37.7573699 43.5729768 37.7405205 43.2647431 38.0355708L43.1830649 38.1115799C43.0596236 38.2332694 42.8574608 38.2665936 42.6800601 38.1988219 40.681346 37.6671324 39.0773483 36.4038082 37.8019115 34.5732237L31.1017103 24.8073607C33.5598182 24.2490868 35.4469177 21.941105 35.4469177 19.3230959 35.4469177 16.2022283 32.9274587 13.6531142 29.8477093 13.6531142L22.3011591 13.6531142C21.7889147 13.6531142 21.3387605 14.0267945 21.3387605 14.5693425 21.3387605 14.9141918 21.5331621 15.2571689 21.8746583 15.4013242 21.8746583 15.4013242 22.0720166 15.4866941 22.0720166 15.7705114L22.0720166 31.5852785C22.0720166 31.8687215 21.8746583 31.9548402 21.8746583 31.9548402 21.5331621 32.0971233 21.3387605 32.4404749 21.3387605 32.7849498 21.3387605 33.3289954 21.7889147 33.7026758 22.3011591 33.7026758 23.3474534 33.7026758 23.8826121 32.7849498 23.8826121 31.6976073L23.8826121 16.029242C23.8826121 15.8588767 23.8826121 15.6293516 23.7399524 15.4866941L29.8477093 15.4866941C31.9414067 15.4866941 33.6097121 17.2056986 33.6097121 19.3230959 33.6097121 21.4139087 31.9114704 23.1037078 29.8477093 23.1037078L26.0554006 23.1037078C25.5472216 23.1037078 25.1513964 23.5047215 25.1513964 24.0210594 25.1513964 24.5081918 25.5472216 24.9372877 26.0554006 24.9372877L28.995447 24.9372877 36.4396223 35.8462831C37.8481096 37.941589 39.9817221 39.4235799 42.3884578 40.0155525 43.0429923 40.216621 43.8276206 40.1391142 44.3210162 39.6684566 44.7948238 39.2172694 44.8898071 38.5710046 44.4426096 38.0891142M126.732124 31.260274C126.345538 31.0333699 125.814815 31.1797717 125.604891 31.5467123L125.550562 31.6418174C125.465188 31.7927123 125.288157 31.8840731 125.100408 31.8687215L115.203668 31.8687215C115.343002 31.7264384 115.343002 31.4965388 115.343002 31.3239269L115.343002 24.8526667 124.134683 24.8526667C124.643601 24.8526667 125.039796 24.4527763 125.039796 23.9356895 125.039796 23.4485571 124.643601 23.017589 124.134683 23.017589L115.343002 23.017589 115.343002 16.029242C115.343002 15.8588767 115.343002 15.6293516 115.203668 15.4866941L124.564879 15.4866941C124.749302 15.4717169 124.929659 15.5615799 125.010968 15.7113516L125.070471 15.8075799C125.276699 16.174895 125.805206 16.3197991 126.195857 16.0958904 126.749125 15.7705114 126.847065 15.0954155 126.524417 14.5345205 126.195857 13.9496621 125.477014 13.6504932 124.808805 13.6531142L113.760809 13.6531142C113.248935 13.6531142 112.79878 14.0267945 112.79878 14.5693425 112.79878 14.9141918 112.996878 15.2571689 113.337635 15.4013242 113.337635 15.4013242 113.535732 15.4866941 113.535732 15.7705114L113.535732 31.5852785C113.535732 31.8687215 113.337635 31.9548402 113.337635 31.9548402 112.996878 32.0971233 112.79878 32.4404749 112.79878 32.7849498 112.79878 33.3289954 113.248935 33.7026758 113.760809 33.7026758L125.343594 33.7026758C126.012912 33.7037991 126.732124 33.4065023 127.063642 32.818274 127.382963 32.2592511 127.285023 31.5852785 126.732124 31.260274"/>
    </g>
  </g>
</svg>
