<svg id="Layer_1" xmlns="http://www.w3.org/2000/svg" width="80" height="80" viewBox="0 0 80 80" fill="#423e3b"><path d="M50.35 19.818c.69-.789 1.125-1.799 1.134-2.873.005-.029 0-2.029 0-2.029a.5.5 0 0 0-1 0v1.346c-3.888-.723-8.834-2.252-9.821-3.846h1.321a.5.5 0 0 0 0-1h-1.5v-2h1.5a.5.5 0 0 0 0-1h-1.5v-3.5a.5.5 0 0 0-1 0v3.5h-1.5a.5.5 0 1 0 0 1h1.5v2h-1.5a.5.5 0 1 0 0 1h1.32c-.987 1.594-5.934 3.121-9.82 3.846v-1.346a.5.5 0 0 0-1 0v2c0 1.09.435 2.117 1.131 2.916-10.788 4.178-18.46 14.66-18.46 26.906 0 15.906 12.94 28.846 28.846 28.846s28.846-12.939 28.846-28.846c-.001-12.259-7.691-22.75-18.497-26.92zm17.496 26.92A27.72 27.72 0 0 1 61.5 64.416h-1.017v-3.111a2.505 2.505 0 0 0 1.982-2.445c0-1.379-1.122-2.5-2.5-2.5a2.502 2.502 0 0 0-2.5 2.5c0 1.213.869 2.225 2.018 2.451v3.105h-4v-3.5a.5.5 0 0 0-.5-.5h-4.5v-3h2.482c2.356 0 4.448-2.035 4.518-4.381.01-.039 0-2.119 0-2.119a.5.5 0 0 0-1 0v1.5h-4v-3.5a.5.5 0 0 0-.5-.5h-2.5v-3h1.482c2.356 0 4.448-2.035 4.518-4.381.01-.039 0-2.119 0-2.119a.5.5 0 0 0-1 0v1.5h-5v-3.5a.5.5 0 0 0-.5-.5h-1.5v-3h1.482c2.356 0 4.448-2.035 4.518-4.381.01-.039 0-2.119 0-2.119a.5.5 0 0 0-1 0v1.5h-6v-3.5a.5.5 0 0 0-.5-.5h-1.5v-3h2.482c.924 0 1.806-.316 2.542-.838 10.685 3.897 18.339 14.145 18.339 26.16zm-7.88 13.621a1.501 1.501 0 1 1 1.5-1.5c0 .827-.673 1.5-1.5 1.5zm-5.483 1.057v3h-2v-3h2zm-11-1v-3h6v3h-6zm5 1v3h-2v-3h2zm-11-1v-3h5v3h-5zm5 1v3h-2v-3h2zm-3 0v3h-2v-3h2zm-12.517-5c-1.803 0-3.195-1.496-3.456-3h32.912c-.261 1.504-1.653 3-3.456 3h-26zm2.517 4v-3h7v3h-7zm7 1v3h-2v-3h2zm-3 0v3h-2v-3h2zm-3 0v3h-2v-3h2zm21.939-32c-.261 1.504-1.653 3-3.456 3h-18c-1.803 0-3.195-1.496-3.456-3h24.912zm-17.939-1v-3h2v3h-2zm9-4h-7v-3h7v3zm2 1v3h-2v-3h2zm-3 0v3h-2v-3h2zm-3 0v3h-2v-3h2zm7 11h-3v-3h3v3zm2 1v3h-2v-3h2zm-3 0v3h-2v-3h2zm-8-1v-3h5v3h-5zm5 1v3h-2v-3h2zm-3 0v3h-2v-3h2zm-6-1v-3h3v3h-3zm3 1v3h-2v-3h2zm17.939 4c-.261 1.504-1.653 3-3.456 3h-22c-1.803 0-3.195-1.496-3.456-3h28.912zm-22.939-1v-3h2v3h-2zm18 9h2v3h-2v-3zm-6-1v-3h5v3h-5zm5 1v3h-2v-3h2zm-3 0v3h-2v-3h2zm-8-1v-3h5v3h-5zm5 1v3h-2v-3h2zm-3 0v3h-2v-3h2zm-9-1v-3h6v3h-6zm6 1v3h-2v-3h2zm-3 0v3h-2v-3h2zm-5 3v-3h2v3h-2zm15 9h2v3h-2v-3zm6 0h2v3h-2v-3zM34.632 16.01c2.779-.867 4.55-1.799 5.352-2.822.801 1.023 2.572 1.955 5.351 2.822.471.146.94.281 1.399.406h-13.5c.457-.125.928-.26 1.398-.406zm15.79 1.406c-.261 1.504-1.653 3-3.456 3h-14c-1.803 0-3.195-1.496-3.456-3h20.912zm-19.969 3.178a4.358 4.358 0 0 0 2.513.822h2.518v3h-1.5a.5.5 0 0 0-.5.5v3.5h-6v-1.5a.5.5 0 0 0-1 0v2c0 2.396 2.085 4.5 4.482 4.5h1.518v3h-1.5a.5.5 0 0 0-.5.5v3.5h-5v-1.5a.5.5 0 0 0-1 0v2c0 2.396 2.085 4.5 4.482 4.5h.518v3h-1.5a.5.5 0 0 0-.5.5v3.5h-4v-1.5a.5.5 0 0 0-1 0v2c0 2.396 2.085 4.5 4.482 4.5h1.518v3h-3.5a.5.5 0 0 0-.5.5v3.5h-4v-3.111a2.505 2.505 0 0 0 1.982-2.445c0-1.379-1.122-2.5-2.5-2.5a2.502 2.502 0 0 0-2.5 2.5c0 1.213.869 2.225 2.018 2.451v3.105h-.982a27.719 27.719 0 0 1-6.347-17.678c-.001-12 7.635-22.238 18.298-26.144zm-2.97 40.822v3h-2v-3h2zm-7.517-1.057a1.501 1.501 0 1 1 1.5-1.5c0 .827-.673 1.5-1.5 1.5zm13.517 13.448a27.212 27.212 0 0 1-2-.559v-3.832h2v4.391zm-3-.899a28.083 28.083 0 0 1-2-.826v-2.666h2v3.492zm-3-1.306a27.763 27.763 0 0 1-3.613-2.186h3.613v2.186zm7 2.431v-1.617h11v1.623a27.903 27.903 0 0 1-11-.006zm17-1.935c-.655.297-1.32.574-2 .822v-3.504h2v2.682zm-3 1.162c-.656.209-1.324.393-2 .555v-4.398h2v3.843zm-3-1.844h-11v-2h11v2zm7 .203v-2.203h3.646a27.83 27.83 0 0 1-3.646 2.203zm4.968-3.203H22.549a28.227 28.227 0 0 1-3.184-3h41.27a28.057 28.057 0 0 1-3.184 3z"/></svg>