<svg id="Layer_1" xmlns="http://www.w3.org/2000/svg" width="80" height="80" viewBox="0 0 80 80" fill="#423e3b"><path d="M40.482 17.904v-2.489h1.5a.5.5 0 0 0 0-1h-1.5v-9.5a.5.5 0 0 0-1 0v9.5h-1.5a.5.5 0 0 0 0 1h1.5v2.49c-15.668.278-28.329 13.101-28.329 28.833 0 15.906 12.94 28.846 28.846 28.846s28.847-12.939 28.847-28.846c0-15.743-12.681-28.574-28.364-28.834zm5.13 22.307c.09.096.22.15.354.15.131 0 .26-.055.351-.146a.506.506 0 0 0 .134-.277 9.5 9.5 0 0 1 2.678 4.458.516.516 0 0 0-.517.109.5.5 0 0 0 0 .705.487.487 0 0 0 .7.004c.094.535.152 1.082.152 1.645 0 .137-.016.271-.021.406a.491.491 0 0 0-.127-.26.515.515 0 0 0-.705 0 .5.5 0 0 0 0 .705.487.487 0 0 0 .705 0 .466.466 0 0 0 .114-.189 9.455 9.455 0 0 1-.32 1.871.51.51 0 0 0-.499.113.5.5 0 0 0-.146.355c0 .018.009.035.011.055h-2.022c.003-.02.012-.037.012-.055a.492.492 0 0 0-.149-.355.515.515 0 0 0-.705 0 .49.49 0 0 0-.146.355c0 .018.009.035.011.055h-2.026c.002-.02.011-.037.011-.055 0-.135-.05-.26-.145-.355a.512.512 0 0 0-.705 0 .503.503 0 0 0-.15.355c0 .018.01.035.012.055h-2.022c.002-.02.011-.037.011-.055 0-.135-.05-.26-.145-.355a.512.512 0 0 0-.705 0 .503.503 0 0 0-.15.355c0 .018.01.035.012.055h-2.019c.003-.02.012-.037.012-.055a.503.503 0 0 0-.149-.355.515.515 0 0 0-.705 0 .5.5 0 0 0-.146.355c0 .018.009.035.011.055h-2.022c.003-.02.012-.037.012-.055a.492.492 0 0 0-.149-.355.515.515 0 0 0-.705 0 .493.493 0 0 0-.15.355c0 .018.01.035.012.055h-2.022c.002-.02.011-.037.011-.055 0-.135-.05-.26-.145-.355a.502.502 0 0 0-.489-.113 9.397 9.397 0 0 1-.281-1.477h7.918c1.654 0 3-1.346 3-3s-1.346-3-3-3h-5.636a3.752 3.752 0 0 0-.231-1.037c.271-.336.565-.65.88-.945a.478.478 0 0 0 .135.277c.09.096.22.15.354.15a.503.503 0 0 0 .5-.5.492.492 0 0 0-.149-.355.458.458 0 0 0-.214-.113 9.445 9.445 0 0 1 5.361-2.018c.004.125.056.25.147.336a.49.49 0 0 0 .705 0 .474.474 0 0 0 .14-.326 9.433 9.433 0 0 1 5.362 2.008.439.439 0 0 0-.207.113.49.49 0 0 0-.146.355.472.472 0 0 0 .142.351zm-5.613 34.373a28.1 28.1 0 0 1-2.989-.162l.222-5.006h2.251v2.5a.5.5 0 0 0 1 0v-2.5h2.215l.224 5.016c-.962.099-1.936.152-2.923.152zm-4.517-6.168v-2h9v2h-9zm1.927-3l.089-2h4.934l.089 2h-5.112zm-1.927-3v-2h9v2h-9zm2.194-3l.102-2.295c.706.15 1.436.238 2.188.238.75 0 1.48-.082 2.188-.232l.102 2.289h-4.58zm2.289-3.057a9.437 9.437 0 0 1-6.334-2.443h12.672a9.45 9.45 0 0 1-6.338 2.443zm-7.294-3.443a9.547 9.547 0 0 1-1.283-2h17.154a9.564 9.564 0 0 1-1.265 2H32.671zM20.36 42.168c-.248-.434-.396-1.029-.396-1.593a3.449 3.449 0 0 1 3.438-3.451c1.6 0 2.972 1.088 3.338 2.645a.497.497 0 0 0 .318.355.506.506 0 0 0 .472-.072 2.653 2.653 0 0 1 1.622-.562c1.481 0 2.688 1.217 2.688 2.712 0 .029-.005.08-.009.111a.501.501 0 0 0 .489.604h6.145c1.103 0 2 .896 2 2s-.897 2-2 2h-22a2 2 0 0 1 0-4h3.461a.502.502 0 0 0 .434-.749zm24.122-4.773a10.435 10.435 0 0 0-4.518-1.035c-1.605 0-3.124.365-4.482 1.016v-2.959h9v2.978zm-2-3.978h-5v-5h5v5zm-7-6v-2h9v2h-9zM12.153 46.738c0-15.181 12.213-27.555 27.329-27.833v2.511h-1.5a.5.5 0 1 0 0 1h1.5v2h-4.5a.5.5 0 0 0-.5.5v3a.5.5 0 0 0 .5.5h1.5v5h-1.5a.5.5 0 0 0-.5.5v4.004a10.682 10.682 0 0 0-2.4 2.033 3.667 3.667 0 0 0-2.93-1.465c-.574 0-1.133.137-1.646.398a4.41 4.41 0 0 0-4.104-2.764c-2.447 0-4.438 1.998-4.438 4.451 0 .455.072.916.205 1.341h-2.705c-1.654 0-3 1.346-3 3s1.346 3 3 3h13.078a10.517 10.517 0 0 0 7.245 8.941l-.114 2.559h-1.691a.5.5 0 0 0-.5.5v3a.5.5 0 0 0 .5.5h1.512l-.089 2h-1.423a.5.5 0 0 0-.5.5v3a.5.5 0 0 0 .5.5h1.244l-.219 4.879c-13.469-1.941-23.854-13.557-23.854-27.555zm31.768 27.565l-.219-4.887h1.28c.275 0 .5-.225.5-.5v-3a.5.5 0 0 0-.5-.5h-1.459l-.089-2h1.548c.275 0 .5-.225.5-.5v-3a.5.5 0 0 0-.5-.5h-1.727l-.114-2.551c4.241-1.35 7.323-5.324 7.323-10.006 0-3.766-2-7.066-4.986-8.919 0-.008.004-.016.004-.023v-4a.5.5 0 0 0-.5-.5h-1.5v-5h1.5c.275 0 .5-.225.5-.5v-3a.5.5 0 0 0-.5-.5h-4.5v-2h1.5a.5.5 0 0 0 0-1h-1.5v-2.512c15.132.26 27.363 12.643 27.363 27.834 0 2.99-.479 5.869-1.355 8.572a3.645 3.645 0 0 0-3.705-1.237 5.733 5.733 0 0 0-5.201-3.283c-3.19 0-5.786 2.607-5.786 5.812 0 .287.026.541.071.812h-.404c-1.654 0-3 1.346-3 3s1.346 3 3 3h10.82c-4.341 5.786-10.879 9.829-18.364 10.888zm19.078-11.887H51.465a2 2 0 0 1 0-4h1.009c.15 0 .293-.068.388-.186a.492.492 0 0 0 .102-.416c-.102-.494-.165-.814-.165-1.211 0-2.654 2.147-4.812 4.786-4.812 1.986 0 3.735 1.207 4.455 3.074a.502.502 0 0 0 .649.287 2.67 2.67 0 0 1 .98-.186c1.018 0 1.947.609 2.409 1.529a27.803 27.803 0 0 1-3.079 5.921zM39.962 31.362a.496.496 0 0 0 .355-.15.489.489 0 0 0 0-.705.515.515 0 0 0-.705 0 .493.493 0 0 0 0 .709.51.51 0 0 0 .35.146zm2.65 15.644a.503.503 0 0 0-.15.355c0 .129.056.26.15.35a.49.49 0 0 0 .705 0 .485.485 0 0 0 .145-.35c0-.135-.05-.26-.145-.355a.511.511 0 0 0-.705 0zm3 0a.49.49 0 0 0-.146.355c0 .129.051.26.146.35.09.096.22.15.354.15a.503.503 0 0 0 .5-.5.492.492 0 0 0-.149-.355.515.515 0 0 0-.705 0zm-3-2.5a.503.503 0 0 0-.15.355c0 .129.056.26.15.35a.49.49 0 0 0 .705 0 .485.485 0 0 0 .145-.35c0-.135-.05-.26-.145-.355a.511.511 0 0 0-.705 0zm3 0a.49.49 0 0 0-.146.355c0 .129.051.26.146.35.09.096.22.15.354.15a.503.503 0 0 0 .5-.5.492.492 0 0 0-.149-.355.515.515 0 0 0-.705 0zm-3-2.5a.503.503 0 0 0-.15.355c0 .129.056.26.15.35a.49.49 0 0 0 .705 0 .485.485 0 0 0 .145-.35c0-.135-.05-.26-.145-.355a.511.511 0 0 0-.705 0zm3 .705c.09.096.22.15.354.15a.503.503 0 0 0 .5-.5.492.492 0 0 0-.149-.355.515.515 0 0 0-.705 0 .49.49 0 0 0-.146.355c.001.129.052.26.146.35zm-6-3.205a.503.503 0 0 0-.15.355c0 .129.056.26.15.35a.49.49 0 0 0 .705 0 .485.485 0 0 0 .145-.35c0-.135-.05-.26-.145-.355a.513.513 0 0 0-.705 0zm-3 0a.5.5 0 0 0 0 .705.487.487 0 0 0 .705 0 .489.489 0 0 0 0-.705.517.517 0 0 0-.705 0zm6 0a.503.503 0 0 0-.15.355c0 .129.056.26.15.35a.49.49 0 0 0 .705 0 .485.485 0 0 0 .145-.35c0-.135-.05-.26-.145-.355a.513.513 0 0 0-.705 0z"/></svg>