<svg xmlns="http://www.w3.org/2000/svg" width="20" height="20" viewBox="0 0 20 20"><path fill-rule="evenodd" d="M15.597 8.474a.935.935 0 0 1 0 1.317.927.927 0 0 1-1.314 0 .93.93 0 1 1 1.314-1.317m1.123-1.351a.814.814 0 1 1-1.624.107c-.087-1.319-.95-1.535-1.121-1.565a.808.808 0 0 1-.69-.916.82.82 0 0 1 .924-.695c.806.11 2.368.894 2.511 3.069m.227 2.694A113.414 113.414 0 0 1 10 16.944a113.22 113.22 0 0 1-6.948-7.127c-1.217-1.366-1.52-3.032-.83-4.57C2.86 3.818 4.23 2.86 5.63 2.86c2.776 0 3.404 2.076 3.468 2.32.103.41.471.704.895.704H10a.94.94 0 0 0 .9-.703c.063-.237.688-2.318 3.469-2.318 1.4 0 2.77.957 3.409 2.384.69 1.54.386 3.204-.832 4.57m2.53-5.332C18.526 2.368 16.522 1 14.37 1c-2.152 0-3.548.947-4.37 1.972C9.178 1.947 7.782 1 5.63 1 3.477 1 1.472 2.368.524 4.485c-.988 2.205-.562 4.66 1.14 6.57 4.076 4.573 7.679 7.815 7.715 7.847a.928.928 0 0 0 1.242 0c.036-.032 3.638-3.274 7.715-7.847 1.702-1.91 2.128-4.365 1.14-6.57"/></svg>