<svg xmlns="http://www.w3.org/2000/svg" width="20" height="20" viewBox="0 0 20 20"><path fill-rule="evenodd" d="M19.018 3.818c-.7.318-1.455.527-2.236.627a3.907 3.907 0 0 0 1.709-2.164 7.854 7.854 0 0 1-2.473.955C15.3 2.454 14.291 2 13.145 2c-2.136 0-3.882 1.745-3.882 3.9 0 .309.036.609.1.891a11.085 11.085 0 0 1-8.036-4.073A3.862 3.862 0 0 0 .8 4.673c0 1.355.682 2.555 1.736 3.236a3.859 3.859 0 0 1-1.773-.455v.027a3.902 3.902 0 0 0 3.127 3.827 3.833 3.833 0 0 1-1.754.063 3.89 3.89 0 0 0 3.636 2.709 7.743 7.743 0 0 1-4.845 1.673A7.79 7.79 0 0 1 0 15.698a11.041 11.041 0 0 0 5.982 1.755c7.164 0 11.1-5.945 11.1-11.1l-.009-.509a7.77 7.77 0 0 0 1.945-2.027v.001z"/></svg>