<svg xmlns="http://www.w3.org/2000/svg" width="20" height="20" viewBox="0 0 20 20"><path fill-rule="evenodd" d="M14.371 8.94a.91.91 0 0 1 .265.638.904.904 0 1 1-.265-.637m1.665-1.735a.791.791 0 1 1-1.568-.21c.158-1.183-1.161-1.801-1.217-1.827a.793.793 0 0 1-.394-1.045.789.789 0 0 1 1.039-.4c.1.045 2.455 1.118 2.14 3.482m-3.527 5.233c-2.883 0-5.229-2.385-5.229-5.316 0-2.93 2.346-5.315 5.23-5.315 2.882 0 5.228 2.385 5.228 5.315 0 2.931-2.346 5.316-5.229 5.316M12.51 0C8.63 0 5.473 3.195 5.473 7.123c0 1.65.558 3.17 1.492 4.38L.293 18.268a1.017 1.017 0 0 0 1.448 1.428l6.684-6.778a6.94 6.94 0 0 0 4.084 1.328c3.88 0 7.037-3.196 7.037-7.124C19.546 3.195 16.389 0 12.509 0"/></svg>