<svg id="Layer_1" xmlns="http://www.w3.org/2000/svg" width="80" height="80" viewBox="0 0 80 80" fill="#423e3b"><path d="M42.505 49.916a.5.5 0 0 0-.5-.5h-4a.5.5 0 0 0-.5.5v7a.5.5 0 0 0 .5.5h4a.5.5 0 0 0 .5-.5v-7zm-4 .5h3v6h-3v-6zm5.449 9h-8a.5.5 0 1 0 0 1h8a.5.5 0 0 0 0-1zm2.551-22.5a.5.5 0 0 0-.5-.5h-12a.5.5 0 0 0-.5.5v4a.5.5 0 0 0 .5.5h12a.5.5 0 0 0 .5-.5v-4zm-4 .5h3v3h-3v-3zm-4 0h3v3h-3v-3zm-4 0h3v3h-3v-3zm18-16.668V4.916c0-.277-.274-.5-.551-.5h-12c-.276 0-.449.223-.449.5v12.99c-15.5.277-28.354 13.1-28.354 28.832 0 15.906 12.928 28.846 28.833 28.846 15.906 0 28.866-12.939 28.866-28.846 0-11.435-6.845-21.326-16.345-25.99zm-.043 20.668l-.811-2h15.186c.18.656.336 1.324.467 2H52.462zm13.043 1v8h-3v-8h3zm-4 0v8h-3v-8h3zm-4 0v8h-3v-8h3zm-6.929 27l.667 2h-8.738v-2h8.071zm-8.071-1v-2h8.071l.667 2h-8.738zm8.23 4c-2.586 1.088-5.23 1.793-8.23 2.053v-2.053h8.23zm-22.105-7l.667-2h21.279l.667 2H28.63zm8.875 7v2.049a27.24 27.24 0 0 1-8.3-2.049h8.3zm-8.875-1l.667-2h8.208v2H28.63zm8.875-3H28.63l.667-2h8.208v2zm-10.915-6l2.763-15h21.168l2.763 15H26.59zm4.915-16v-2h17v2h-17zm19.924.408a.5.5 0 0 0-.492-.408h-1.432v-2h3.432a.5.5 0 0 0 .429-.773l-.497-1.227h.637v8H52.09l-.661-3.592zm15.076-4.408h.975c.221 1.408.338 2.852.338 4.322 0 1.246-.088 2.473-.248 3.678h-1.064v-8zm-23-37h8v3h-8v-3zm0 4h8v3h-8v-3zm0 4h8v3h-8v-3zm0 4h8v3h-8v-3zm0 4h8v3h-8v-3zm0 4h8v3h-8v-3zm0 4h8.449c.276 0 .551-.225.551-.5v-7.061c6.5 3.363 11.769 9.33 14.038 16.561H51.245l-1.846-4.551c-.053-.131-.131-.232-.263-.281l-5.632-2.111v-2.057zm-3-24h2V31.1l-2-.748V5.416zm8.051 29.029l3.639 8.971H27.679l3.639-8.971 8.619-3.219 8.619 3.219zm-34.439 1.971h15.321l-.811 2H13.396c.213-.68.458-1.346.721-2zm7.388-9v8h-3v-6.332c.5-.578.926-1.131 1.443-1.668h1.557zm-6.965 8c.798-1.785 1.965-3.471 2.965-5.033v5.033H14.54zm7.965 0v-8h3v8h-3zm4 0v-8h3v8h-3zm13-5.076l-8.718 3.244a.473.473 0 0 0-.276.281l-.006.047v-6.996c0-.277-.274-.5-.551-.5h-8.99c4.862-4.551 11.541-7.379 18.541-7.51V30.34zM17.472 57.859c0-.441.121-.873.347-1.254.614.484 1.372.754 2.153.754s1.539-.27 2.153-.754c.226.381.347.812.347 1.254 0 1.377-1.121 2.5-2.5 2.5s-2.5-1.123-2.5-2.5zm3.033 3.463c1.5-.236 2.992-1.697 2.992-3.463 0-.857-.335-1.658-.92-2.307-.095-.105-.236-.137-.378-.137h-.003c-.143 0-.279.031-.373.137a2.475 2.475 0 0 1-3.702-.022.515.515 0 0 0-.743-.004 3.457 3.457 0 0 0-.882 2.334c0 1.752 1.508 3.203 3.008 3.455v4.225c-4.5-4.957-7.354-11.561-7.354-18.803 0-2.535.321-4.988.958-7.322h15.113l-1.748 4.311a.505.505 0 0 0 .048.469.504.504 0 0 0 .415.221h3.568v2h-1.568a.5.5 0 0 0-.492.408l-2.947 16a.504.504 0 0 0 .492.592h2.254l-.781 2.342a.5.5 0 0 0 .474.658h.307l-.781 2.342a.5.5 0 0 0 .474.658h.307l-.711 2.207c-2.609-1.312-5.027-3.018-7.027-5.049v-5.252zm18 13.219v-8.125h3v8.127a27.235 27.235 0 0 1-3-.002zm21.467-14.182a2.503 2.503 0 0 1-2.5-2.5c0-.441.121-.873.347-1.254.614.484 1.372.754 2.153.754s1.539-.27 2.153-.754c.226.381.347.812.347 1.254 0 1.377-1.121 2.5-2.5 2.5zm.533.963c1.5-.236 2.992-1.697 2.992-3.463 0-.857-.335-1.658-.92-2.307-.095-.105-.236-.137-.378-.137h-.003c-.143 0-.279.031-.373.137a2.475 2.475 0 0 1-3.702-.022.515.515 0 0 0-.743-.004 3.457 3.457 0 0 0-.882 2.334c0 1.752 1.508 3.203 3.008 3.455v5.291c-2 2.031-4.484 3.736-7.104 5.047l-.771-2.238h.307c.004 0 .007-.002.01 0a.5.5 0 0 0 .435-.748l-.751-2.252h.317a.5.5 0 0 0 .435-.748l-.751-2.252h2.254a.5.5 0 0 0 .492-.592l-2.102-11.408h15.143c-.92 5.406-3.412 10.289-6.912 14.162v-4.255z"/></svg>