<svg id="Layer_1" xmlns="http://www.w3.org/2000/svg" width="80" height="80" viewBox="0 0 80 80" fill="#423e3b"><path d="M50.455 19.869l-.001-2.444h1.5a.503.503 0 0 0 .253-.938l-9.896-5.801c.116-.295.194-.615.194-.934 0-1.217-1-2.232-2-2.459V4.916a.5.5 0 0 0-1 0V7.3c-1.5.239-2 1.242-2 2.441 0 .311.05.623.158.911l-9.959 5.832a.507.507 0 0 0 .249.941h1.552v2.46c-11 4.213-18.347 14.659-18.347 26.852 0 15.906 12.933 28.848 28.838 28.848 15.906 0 28.843-12.938 28.843-28.844.001-12.215-7.639-22.673-18.384-26.872zM62.35 40.668c-.248-.436-.396-1.027-.396-1.586 0-1.908 1.542-3.459 3.438-3.459.02 0 .074.012.129.02a27.454 27.454 0 0 1 2.28 9.781h-9.347c-1.103 0-2-.896-2-2 0-1.102.897-2 2-2h3.461a.506.506 0 0 0 .435-.756zM24.946 57.424h3.508c1.103 0 2 .896 2 2s-.897 2-2 2H16.34c-1.49-2-2.63-5.027-3.342-7.828.466-1.074 1.502-1.816 2.706-1.816.072 0 .143-.008.213-.016.033-.004.062-.008.107-.008a.5.5 0 0 0 .472-.229c.958-1.494 2.57-2.422 4.208-2.422 2.851 0 5 2.051 5 4.77 0 1.467-.531 2.541-.758 2.541a.504.504 0 0 0 0 1.008zm8.06-34.008a.5.5 0 0 0 .5-.5v-5.491h3v13.491a.5.5 0 0 0 1 0V17.425h5v4.491a.5.5 0 0 0 1 0v-4.491h3v7.491a.5.5 0 0 0 1 0v-7.491h1.948l.006 17H30.506v-17h2v5.491a.5.5 0 0 0 .5.5zm7.5 30.008V51.23c1.5-.086 3.5-.641 5-1.553v3.746h-5zm5 1v2h-5v-2h5zm-5.539-4.164c-5.007 0-9.102-3.836-9.452-8.836h1.991v1.492a.5.5 0 0 0 1 0v-1.492h3v3.492a.5.5 0 0 0 1 0v-3.492h5v2.492a.5.5 0 0 0 1 0v-2.492h5.916a9.437 9.437 0 0 1-9.455 8.836zm-.461 4.164v2h-5v-2h5zm-5-1v-3.742c1.5.91 3 1.463 5 1.551v2.191h-5zm.598-13l4.85-4.85 4.85 4.85h-9.7zm3.586-5l-4.736 4.736-4.736-4.736h9.472zm-5.886 5h-4.298v-4.34l4.298 4.34zm.702 8.549v7.941c0 .277.189.51.466.51h5.534v7H28.314l.183-2.006a3.004 3.004 0 0 0 2.957-3 3.003 3.003 0 0 0-2.416-2.943l1.12-12.098a10.521 10.521 0 0 0 3.348 4.596zM28.184 65.85l8.563 8.539a27.628 27.628 0 0 1-9.096-2.697l.533-5.842zm10.115 8.677c-.014-.02-.029-.035-.046-.053l-9.089-9.051h10.342v9.146c-.5-.007-.813-.018-1.207-.042zm2.207-9.103h10.24l-9.114 9.113c-.379.021-1.126.027-1.126.035v-9.148zm2.66 8.972l8.557-8.543.534 5.875a27.592 27.592 0 0 1-9.091 2.668zm-2.66-9.972v-7h5.466c.276 0 .534-.232.534-.51v-7.941c1.5-1.176 2.61-2.73 3.284-4.525l1.801 19.977H40.506zm6.598-24l4.401-4.375v4.375h-4.401zm-1.15-.263l-4.736-4.736h9.473l-4.737 4.736zM39.989 8.245c.827 0 1.5.681 1.5 1.512 0 .229-.053.668-.15.668h-2.696c-.098 0-.153-.447-.153-.679a1.502 1.502 0 0 1 1.499-1.501zm-1.658 3.18h3.25l8.531 5H29.797l8.534-5zm-8.825 9.543v13.457h-1.534c-.276 0-.466.215-.466.492v6c0 .275.189.507.466.507h1.435l-1.365 15h-1.847c.359-.5.51-1.775.51-2.545 0-3.234-2.636-5.771-6-5.771-1.893 0-3.749 1.014-4.904 2.664-.031.002-.063.006-.096.006a3.939 3.939 0 0 0-3.021 1.424 27.88 27.88 0 0 1-.524-5.465c-.001-11.631 6.846-21.61 17.346-25.769zM16.989 62.424h10.506l-.799 8.785c-3.889-2.121-7.217-4.785-9.707-8.785zm36.226 8.818l-2.713-29.818h1.47c.276 0 .534-.232.534-.507v-6c0-.277-.258-.492-.534-.492H50.46l-.005-13.473a28.013 28.013 0 0 1 14.606 13.692c-2.293.17-4.107 2.098-4.107 4.445 0 .449.072 1.336.205 1.336h-2.705c-1.654 0-3 1.345-3 3s1.346 3 3 3h9.375c.001.5.006.213.006.32 0 10.569-5.921 19.78-14.62 24.497z"/></svg>