<svg xmlns="http://www.w3.org/2000/svg" width="20" height="20" viewBox="0 0 20 20"><path fill-rule="evenodd" d="M15.87 4c-1.737 0-3.13 1.175-4.356 2.204-.255.218-.506.427-.748.62-.26 0-.517.05-.767.133a2.4 2.4 0 0 0-.761-.134c-.246-.192-.494-.4-.748-.62C7.263 5.174 5.873 4 4.131 4 1.855 4 0 5.723 0 7.847c0 2.119 1.855 3.847 4.131 3.847 1.65 0 2.987-1.05 4.165-2.041-.654 1.902-.999 3.74-.999 5.397 0 .35.282.635.627.635a.631.631 0 0 0 .629-.635c0-3.015.864-5.307 1.381-6.046h.008c.517.74 1.38 3.028 1.38 6.046 0 .35.284.635.631.635a.63.63 0 0 0 .626-.635c0-1.696-.368-3.641-1.047-5.543 1.22 1.03 2.604 2.187 4.337 2.187 2.277 0 4.131-1.726 4.131-3.847C20 5.723 18.146 4 15.87 4zM7.68 8.517c-1.115.94-2.265 1.911-3.55 1.911-1.587 0-2.872-1.159-2.872-2.581 0-1.421 1.285-2.58 2.872-2.58 1.285 0 2.435.97 3.55 1.912.279.228.548.46.821.668-.273.212-.542.443-.82.67zm8.188 1.915c-1.283 0-2.436-.972-3.55-1.915-.278-.227-.543-.458-.82-.67.277-.208.542-.44.82-.668 1.114-.942 2.267-1.912 3.55-1.912 1.586 0 2.874 1.159 2.874 2.58 0 1.422-1.288 2.585-2.874 2.585z"/></svg>