<svg xmlns="http://www.w3.org/2000/svg" width="20" height="20" viewBox="0 0 20 20"><path fill-rule="evenodd" d="M10 0C4.477 0 0 4.477 0 10c0 4.236 2.636 7.858 6.356 9.315-.088-.791-.167-2.008.034-2.872.182-.78 1.173-4.97 1.173-4.97s-.3-.6-.3-1.485c0-1.39.807-2.429 1.81-2.429.853 0 1.265.64 1.265 1.409 0 .858-.546 2.14-.828 3.33-.235.995.5 1.807 1.481 1.807 1.777 0 3.144-1.875 3.144-4.58 0-2.394-1.72-4.068-4.177-4.068-2.846 0-4.516 2.134-4.516 4.34 0 .859.331 1.78.744 2.282a.3.3 0 0 1 .07.286c-.076.316-.245.996-.278 1.135-.044.183-.145.221-.334.133-1.25-.581-2.03-2.407-2.03-3.874 0-3.154 2.292-6.051 6.607-6.051 3.47 0 6.165 2.472 6.165 5.775 0 3.447-2.173 6.22-5.19 6.22-1.012 0-1.965-.526-2.291-1.148 0 0-.502 1.91-.623 2.377-.226.869-.835 1.958-1.243 2.622.936.29 1.93.446 2.96.446 5.524 0 10-4.477 10-10S15.524 0 10 0"/></svg>