<svg xmlns="http://www.w3.org/2000/svg" width="20" height="20" viewBox="0 0 20 20"><path fill-rule="evenodd" d="M11 15.25c-1 0-1.96-.43-2.65-1.15l-1.19 4-.08.26-.04-.02c-.25.41-.68.66-1.17.66-.75 0-1.37-.62-1.37-1.38l.02-.18-.02-.01.06-.22 2.31-6.95s-.25-.76-.25-1.84c0-2.15 1.16-2.8 2.08-2.8.93 0 1.78.33 1.78 1.64 0 1.68-1.12 2.54-1.12 3.74 0 .94.76 1.69 1.68 1.69 2.92 0 3.96-2.19 3.96-4.25 0-2.73-2.36-4.94-5.25-4.94-2.9 0-5.25 2.21-5.25 4.94 0 .84.25 1.68.68 2.41.11.2.17.42.17.65 0 .69-.56 1.25-1.25 1.25-.44 0-.85-.25-1.08-.62A7.226 7.226 0 0 1 2 8.44C2 4.33 5.48 1 9.75 1s7.75 3.33 7.75 7.44c0 3.28-2.04 6.81-6.5 6.81z"/></svg>