<svg xmlns="http://www.w3.org/2000/svg" width="20" height="20" viewBox="0 0 20 20"><path d="M16.55 1A14.12 14.12 0 0 0 10 2.68 14.12 14.12 0 0 0 3.45 1 12.49 12.49 0 0 0 1 1.25v16A12.49 12.49 0 0 1 3.45 17 13.81 13.81 0 0 1 9 18.2c.33.14.67.3 1 .48.33-.18.67-.34 1-.48a13.81 13.81 0 0 1 5.55-1.2 12.49 12.49 0 0 1 2.45.25v-16A12.49 12.49 0 0 0 16.55 1zM9 16a15.77 15.77 0 0 0-5.55-1H3V3h.45A12.13 12.13 0 0 1 9 4.41V16zm8-1h-.45A15.77 15.77 0 0 0 11 16V4.41A12.13 12.13 0 0 1 16.55 3H17v12zM7.5 8.8a6.79 6.79 0 0 0-3-.55v-2a6.79 6.79 0 0 1 3 .55v2zM4.84 6.24a6.83 6.83 0 0 1 2.66.56v2a6.83 6.83 0 0 0-2.66-.56H4.5v-2h.34zM7.5 12.8a6.79 6.79 0 0 0-3-.55v-2a6.79 6.79 0 0 1 3 .55v2zm-2.66-2.56a6.83 6.83 0 0 1 2.66.56v2a6.83 6.83 0 0 0-2.66-.56H4.5v-2h.34zM12.5 6.8a6.79 6.79 0 0 1 3-.55v2a6.79 6.79 0 0 0-3 .55v-2zm2.66-.56h.34v2h-.34a6.83 6.83 0 0 0-2.66.56v-2a6.83 6.83 0 0 1 2.66-.56zM12.5 10.8a6.79 6.79 0 0 1 3-.55v2a6.79 6.79 0 0 0-3 .55v-2zm2.66-.56h.34v2h-.34a6.83 6.83 0 0 0-2.66.56v-2a6.83 6.83 0 0 1 2.66-.56z"/></svg>